<svg xmlns="http://www.w3.org/2000/svg" xmlns:xlink="http://www.w3.org/1999/xlink" width="1410" zoomAndPan="magnify" viewBox="0 0 1057.5 1687.499993" height="2250" preserveAspectRatio="xMidYMid meet" version="1.0"><defs><g/><clipPath id="4b8c1a8929"><path d="M 0 0.148438 L 1057 0.148438 L 1057 1686.851562 L 0 1686.851562 Z M 0 0.148438 " clip-rule="nonzero"/></clipPath><clipPath id="61969fa738"><path d="M 272.996094 339.59375 L 330.71875 339.59375 L 330.71875 397.316406 L 272.996094 397.316406 Z M 272.996094 339.59375 " clip-rule="nonzero"/></clipPath><clipPath id="425d58870f"><path d="M 726.660156 1212.644531 L 860.097656 1212.644531 L 860.097656 1346.082031 L 726.660156 1346.082031 Z M 726.660156 1212.644531 " clip-rule="nonzero"/></clipPath><clipPath id="7c033c7030"><path d="M 151.492188 236.621094 L 284.925781 236.621094 L 284.925781 370.058594 L 151.492188 370.058594 Z M 151.492188 236.621094 " clip-rule="nonzero"/></clipPath><clipPath id="a3b2337d29"><path d="M 814.984375 323.164062 L 905.691406 323.164062 L 905.691406 413.871094 L 814.984375 413.871094 Z M 814.984375 323.164062 " clip-rule="nonzero"/></clipPath><clipPath id="344d2d3529"><path d="M 691.308594 1306.554688 L 721.292969 1306.554688 L 721.292969 1336.539062 L 691.308594 1336.539062 Z M 691.308594 1306.554688 " clip-rule="nonzero"/></clipPath><clipPath id="a9b4240f17"><path d="M 170.894531 431.871094 L 198.632812 431.871094 L 198.632812 459.605469 L 170.894531 459.605469 Z M 170.894531 431.871094 " clip-rule="nonzero"/></clipPath><clipPath id="a6ce3326e7"><path d="M 245.933594 1212.644531 L 275.917969 1212.644531 L 275.917969 1242.632812 L 245.933594 1242.632812 Z M 245.933594 1212.644531 " clip-rule="nonzero"/></clipPath><clipPath id="39516c4406"><path d="M 158.347656 1152.707031 L 218.316406 1152.707031 L 218.316406 1212.679688 L 158.347656 1212.679688 Z M 158.347656 1152.707031 " clip-rule="nonzero"/></clipPath><clipPath id="6690810dc6"><path d="M 610.214844 206.652344 L 670.183594 206.652344 L 670.183594 266.625 L 610.214844 266.625 Z M 610.214844 206.652344 " clip-rule="nonzero"/></clipPath><clipPath id="07b2621d18"><path d="M 90 397.261719 L 967 397.261719 L 967 1282.59375 L 90 1282.59375 Z M 90 397.261719 " clip-rule="nonzero"/></clipPath></defs><g clip-path="url(#4b8c1a8929)"><path fill="#ffffff" d="M 0 0.148438 L 1057 0.148438 L 1057 1686.851562 L 0 1686.851562 Z M 0 0.148438 " fill-opacity="1" fill-rule="nonzero"/><path fill="#fffdf9" d="M 0 0.148438 L 1057 0.148438 L 1057 1686.851562 L 0 1686.851562 Z M 0 0.148438 " fill-opacity="1" fill-rule="nonzero"/></g><g clip-path="url(#61969fa738)"><path fill="#fbdc4d" d="M 301.828125 339.59375 C 299.015625 363.335938 296.738281 365.617188 272.996094 368.425781 C 273.042969 368.429688 273.09375 368.4375 273.140625 368.441406 L 273.140625 368.445312 L 273.144531 368.441406 C 296.746094 371.246094 299.023438 373.5625 301.828125 397.257812 C 304.636719 373.515625 306.914062 371.234375 330.660156 368.425781 C 306.914062 365.617188 304.636719 363.335938 301.828125 339.59375 Z M 301.828125 339.59375 " fill-opacity="1" fill-rule="nonzero"/></g><g clip-path="url(#425d58870f)"><path fill="#fbdc4d" d="M 807.199219 1287.117188 C 816.429688 1281.078125 832.332031 1280.289062 860.238281 1279.433594 C 832.332031 1278.578125 816.429688 1277.792969 807.199219 1271.753906 C 809.949219 1265.550781 815.875 1258.359375 824.984375 1247.898438 C 814.527344 1257.007812 807.335938 1262.933594 801.132812 1265.683594 C 795.09375 1256.457031 794.304688 1240.554688 793.449219 1212.644531 C 792.59375 1240.554688 791.808594 1256.457031 785.769531 1265.683594 C 779.566406 1262.933594 772.375 1257.007812 761.914062 1247.898438 C 771.023438 1258.359375 776.949219 1265.550781 779.699219 1271.753906 C 770.472656 1277.792969 754.570312 1278.578125 726.660156 1279.433594 C 754.570312 1280.289062 770.472656 1281.078125 779.699219 1287.117188 C 776.949219 1293.320312 771.023438 1300.511719 761.914062 1310.96875 C 772.375 1301.859375 779.566406 1295.933594 785.769531 1293.1875 C 791.808594 1302.414062 792.59375 1318.316406 793.449219 1346.222656 C 794.304688 1318.316406 795.09375 1302.414062 801.132812 1293.1875 C 807.335938 1295.933594 814.527344 1301.859375 824.984375 1310.96875 C 815.875 1300.511719 809.949219 1293.320312 807.199219 1287.117188 Z M 807.199219 1287.117188 " fill-opacity="1" fill-rule="nonzero"/></g><g clip-path="url(#7c033c7030)"><path fill="#fbdc4d" d="M 232.03125 311.089844 C 241.257812 305.054688 257.160156 304.265625 285.066406 303.410156 C 257.160156 302.554688 241.257812 301.769531 232.03125 295.730469 C 234.78125 289.527344 240.707031 282.335938 249.816406 271.875 C 239.355469 280.984375 232.164062 286.910156 225.960938 289.660156 C 219.921875 280.433594 219.136719 264.527344 218.277344 236.621094 C 217.421875 264.527344 216.636719 280.433594 210.597656 289.660156 C 204.394531 286.910156 197.203125 280.984375 186.742188 271.875 C 195.851562 282.335938 201.777344 289.527344 204.527344 295.730469 C 195.300781 301.769531 179.398438 302.554688 151.492188 303.410156 C 179.398438 304.265625 195.300781 305.054688 204.527344 311.089844 C 201.777344 317.296875 195.851562 324.484375 186.742188 334.945312 C 197.203125 325.835938 204.394531 319.910156 210.597656 317.160156 C 216.636719 326.390625 217.421875 342.292969 218.277344 370.199219 C 219.136719 342.292969 219.921875 326.390625 225.960938 317.160156 C 232.164062 319.910156 239.355469 325.835938 249.816406 334.945312 C 240.707031 324.484375 234.78125 317.296875 232.03125 311.089844 Z M 232.03125 311.089844 " fill-opacity="1" fill-rule="nonzero"/></g><g clip-path="url(#a3b2337d29)"><path fill="#fbdc4d" d="M 869.5625 373.628906 C 875.816406 369.539062 886.59375 369.007812 905.503906 368.425781 C 886.59375 367.84375 875.816406 367.3125 869.5625 363.222656 C 871.425781 359.015625 875.441406 354.144531 881.613281 347.054688 C 874.527344 353.226562 869.652344 357.242188 865.449219 359.105469 C 861.355469 352.855469 860.824219 342.078125 860.246094 323.164062 C 859.664062 342.078125 859.132812 352.855469 855.039062 359.105469 C 850.835938 357.242188 845.960938 353.226562 838.875 347.054688 C 845.046875 354.144531 849.0625 359.015625 850.925781 363.222656 C 844.671875 367.3125 833.894531 367.84375 814.984375 368.425781 C 833.894531 369.007812 844.671875 369.539062 850.925781 373.628906 C 849.0625 377.835938 845.046875 382.707031 838.875 389.796875 C 845.960938 383.621094 850.835938 379.609375 855.039062 377.742188 C 859.132812 383.996094 859.664062 394.773438 860.246094 413.683594 C 860.824219 394.773438 861.355469 383.996094 865.449219 377.742188 C 869.652344 379.609375 874.527344 383.621094 881.613281 389.796875 C 875.441406 382.707031 871.425781 377.835938 869.5625 373.628906 Z M 869.5625 373.628906 " fill-opacity="1" fill-rule="nonzero"/></g><g clip-path="url(#344d2d3529)"><path fill="#fbdc4d" d="M 706.386719 1306.792969 C 706.390625 1307.769531 706.488281 1308.730469 706.679688 1309.6875 C 706.871094 1310.640625 707.152344 1311.570312 707.527344 1312.46875 C 707.898438 1313.367188 708.355469 1314.222656 708.898438 1315.03125 C 709.441406 1315.839844 710.054688 1316.589844 710.742188 1317.28125 C 711.433594 1317.96875 712.179688 1318.582031 712.992188 1319.125 C 713.800781 1319.667969 714.65625 1320.125 715.554688 1320.496094 C 716.453125 1320.871094 717.378906 1321.152344 718.335938 1321.34375 C 719.289062 1321.535156 720.253906 1321.632812 721.230469 1321.632812 L 721.46875 1321.632812 C 721.386719 1321.632812 721.308594 1321.632812 721.230469 1321.632812 C 720.253906 1321.636719 719.289062 1321.734375 718.335938 1321.925781 C 717.378906 1322.117188 716.453125 1322.398438 715.554688 1322.773438 C 714.65625 1323.144531 713.800781 1323.601562 712.992188 1324.144531 C 712.179688 1324.6875 711.433594 1325.300781 710.742188 1325.988281 C 710.054688 1326.679688 709.441406 1327.425781 708.898438 1328.238281 C 708.355469 1329.046875 707.898438 1329.902344 707.527344 1330.800781 C 707.152344 1331.699219 706.871094 1332.628906 706.679688 1333.582031 C 706.488281 1334.535156 706.390625 1335.5 706.386719 1336.476562 C 706.386719 1336.554688 706.386719 1336.632812 706.386719 1336.714844 C 706.386719 1336.632812 706.386719 1336.554688 706.386719 1336.476562 C 706.386719 1335.5 706.289062 1334.535156 706.097656 1333.582031 C 705.90625 1332.628906 705.625 1331.699219 705.25 1330.800781 C 704.878906 1329.902344 704.417969 1329.046875 703.878906 1328.238281 C 703.335938 1327.425781 702.722656 1326.679688 702.03125 1325.988281 C 701.34375 1325.300781 700.59375 1324.6875 699.785156 1324.144531 C 698.976562 1323.601562 698.121094 1323.144531 697.222656 1322.773438 C 696.324219 1322.398438 695.394531 1322.117188 694.441406 1321.925781 C 693.484375 1321.734375 692.519531 1321.636719 691.546875 1321.632812 C 691.46875 1321.632812 691.386719 1321.632812 691.308594 1321.632812 L 691.546875 1321.632812 C 692.519531 1321.632812 693.484375 1321.535156 694.441406 1321.34375 C 695.394531 1321.152344 696.324219 1320.871094 697.222656 1320.496094 C 698.121094 1320.125 698.976562 1319.667969 699.785156 1319.125 C 700.59375 1318.582031 701.34375 1317.96875 702.03125 1317.28125 C 702.722656 1316.589844 703.335938 1315.839844 703.878906 1315.03125 C 704.417969 1314.222656 704.878906 1313.367188 705.25 1312.46875 C 705.625 1311.570312 705.90625 1310.640625 706.097656 1309.6875 C 706.289062 1308.730469 706.386719 1307.769531 706.386719 1306.792969 C 706.386719 1306.714844 706.386719 1306.636719 706.386719 1306.554688 C 706.386719 1306.636719 706.386719 1306.714844 706.386719 1306.792969 Z M 706.386719 1306.792969 " fill-opacity="1" fill-rule="nonzero"/></g><g clip-path="url(#a9b4240f17)"><path fill="#fbdc4d" d="M 184.621094 432.085938 C 184.625 432.972656 184.710938 433.851562 184.886719 434.722656 C 185.058594 435.589844 185.316406 436.433594 185.65625 437.253906 C 185.996094 438.070312 186.414062 438.847656 186.90625 439.585938 C 187.398438 440.324219 187.960938 441.003906 188.585938 441.632812 C 189.214844 442.257812 189.894531 442.820312 190.632812 443.3125 C 191.367188 443.804688 192.148438 444.222656 192.964844 444.5625 C 193.785156 444.902344 194.628906 445.160156 195.496094 445.332031 C 196.367188 445.507812 197.246094 445.59375 198.132812 445.597656 L 198.347656 445.597656 C 198.277344 445.597656 198.203125 445.597656 198.132812 445.597656 C 197.246094 445.597656 196.367188 445.6875 195.496094 445.859375 C 194.628906 446.035156 193.785156 446.292969 192.964844 446.632812 C 192.148438 446.972656 191.367188 447.386719 190.632812 447.882812 C 189.894531 448.375 189.214844 448.933594 188.585938 449.5625 C 187.960938 450.1875 187.398438 450.871094 186.90625 451.605469 C 186.414062 452.34375 185.996094 453.121094 185.65625 453.941406 C 185.316406 454.757812 185.058594 455.601562 184.886719 456.472656 C 184.710938 457.339844 184.625 458.21875 184.621094 459.105469 C 184.621094 459.179688 184.621094 459.25 184.621094 459.324219 C 184.621094 459.25 184.621094 459.179688 184.621094 459.105469 C 184.621094 458.21875 184.53125 457.339844 184.359375 456.472656 C 184.183594 455.601562 183.925781 454.757812 183.585938 453.941406 C 183.246094 453.121094 182.828125 452.34375 182.335938 451.605469 C 181.84375 450.871094 181.285156 450.1875 180.65625 449.5625 C 180.03125 448.933594 179.347656 448.375 178.613281 447.882812 C 177.875 447.386719 177.097656 446.972656 176.277344 446.632812 C 175.460938 446.292969 174.613281 446.035156 173.746094 445.859375 C 172.875 445.6875 172 445.597656 171.113281 445.597656 C 171.039062 445.597656 170.96875 445.597656 170.894531 445.597656 L 171.113281 445.597656 C 172 445.59375 172.875 445.507812 173.746094 445.332031 C 174.613281 445.160156 175.460938 444.902344 176.277344 444.5625 C 177.097656 444.222656 177.875 443.804688 178.613281 443.3125 C 179.347656 442.820312 180.03125 442.257812 180.65625 441.632812 C 181.285156 441.003906 181.84375 440.324219 182.335938 439.585938 C 182.828125 438.847656 183.246094 438.070312 183.585938 437.253906 C 183.925781 436.433594 184.183594 435.589844 184.359375 434.722656 C 184.53125 433.851562 184.621094 432.972656 184.621094 432.085938 C 184.621094 432.015625 184.621094 431.941406 184.621094 431.871094 C 184.621094 431.941406 184.621094 432.015625 184.621094 432.085938 Z M 184.621094 432.085938 " fill-opacity="1" fill-rule="nonzero"/></g><g clip-path="url(#a6ce3326e7)"><path fill="#fbdc4d" d="M 261.011719 1212.886719 C 261.015625 1213.859375 261.109375 1214.824219 261.300781 1215.777344 C 261.492188 1216.734375 261.777344 1217.660156 262.148438 1218.558594 C 262.523438 1219.460938 262.980469 1220.3125 263.523438 1221.125 C 264.0625 1221.933594 264.679688 1222.683594 265.367188 1223.371094 C 266.054688 1224.058594 266.804688 1224.675781 267.613281 1225.214844 C 268.425781 1225.757812 269.277344 1226.214844 270.179688 1226.589844 C 271.078125 1226.960938 272.003906 1227.246094 272.960938 1227.4375 C 273.914062 1227.628906 274.878906 1227.722656 275.851562 1227.726562 L 276.09375 1227.726562 C 276.011719 1227.726562 275.933594 1227.726562 275.851562 1227.726562 C 274.878906 1227.726562 273.914062 1227.824219 272.960938 1228.015625 C 272.003906 1228.207031 271.078125 1228.488281 270.179688 1228.863281 C 269.277344 1229.238281 268.425781 1229.695312 267.613281 1230.234375 C 266.804688 1230.777344 266.054688 1231.390625 265.367188 1232.082031 C 264.679688 1232.769531 264.0625 1233.519531 263.523438 1234.328125 C 262.980469 1235.136719 262.523438 1235.992188 262.148438 1236.890625 C 261.777344 1237.792969 261.492188 1238.71875 261.300781 1239.671875 C 261.109375 1240.628906 261.015625 1241.59375 261.011719 1242.566406 C 261.011719 1242.644531 261.011719 1242.726562 261.011719 1242.804688 C 261.011719 1242.726562 261.011719 1242.644531 261.011719 1242.566406 C 261.011719 1241.59375 260.914062 1240.628906 260.722656 1239.671875 C 260.53125 1238.71875 260.25 1237.792969 259.875 1236.890625 C 259.5 1235.992188 259.042969 1235.136719 258.503906 1234.328125 C 257.960938 1233.519531 257.34375 1232.769531 256.65625 1232.082031 C 255.96875 1231.390625 255.21875 1230.777344 254.410156 1230.234375 C 253.601562 1229.695312 252.746094 1229.238281 251.847656 1228.863281 C 250.945312 1228.488281 250.019531 1228.207031 249.066406 1228.015625 C 248.109375 1227.824219 247.144531 1227.726562 246.171875 1227.726562 C 246.09375 1227.726562 246.011719 1227.726562 245.933594 1227.726562 L 246.171875 1227.726562 C 247.144531 1227.722656 248.109375 1227.628906 249.066406 1227.4375 C 250.019531 1227.246094 250.945312 1226.960938 251.847656 1226.589844 C 252.746094 1226.214844 253.601562 1225.757812 254.410156 1225.214844 C 255.21875 1224.675781 255.96875 1224.058594 256.65625 1223.371094 C 257.34375 1222.683594 257.960938 1221.933594 258.503906 1221.125 C 259.042969 1220.3125 259.5 1219.460938 259.875 1218.558594 C 260.25 1217.660156 260.53125 1216.734375 260.722656 1215.777344 C 260.914062 1214.824219 261.011719 1213.859375 261.011719 1212.886719 C 261.011719 1212.804688 261.011719 1212.726562 261.011719 1212.644531 C 261.011719 1212.726562 261.011719 1212.804688 261.011719 1212.886719 Z M 261.011719 1212.886719 " fill-opacity="1" fill-rule="nonzero"/></g><g clip-path="url(#39516c4406)"><path fill="#fbdc4d" d="M 188.3125 1153.183594 C 188.3125 1154.148438 188.363281 1155.113281 188.460938 1156.074219 C 188.554688 1157.03125 188.699219 1157.988281 188.886719 1158.933594 C 189.078125 1159.878906 189.3125 1160.816406 189.59375 1161.738281 C 189.875 1162.660156 190.203125 1163.570312 190.574219 1164.460938 C 190.941406 1165.351562 191.355469 1166.222656 191.8125 1167.074219 C 192.265625 1167.925781 192.761719 1168.753906 193.300781 1169.554688 C 193.835938 1170.355469 194.410156 1171.132812 195.023438 1171.878906 C 195.636719 1172.625 196.285156 1173.335938 196.96875 1174.019531 C 197.648438 1174.703125 198.363281 1175.351562 199.109375 1175.964844 C 199.855469 1176.574219 200.628906 1177.152344 201.433594 1177.6875 C 202.234375 1178.222656 203.0625 1178.71875 203.914062 1179.175781 C 204.765625 1179.632812 205.636719 1180.042969 206.527344 1180.414062 C 207.417969 1180.785156 208.324219 1181.109375 209.25 1181.390625 C 210.171875 1181.671875 211.109375 1181.910156 212.054688 1182.097656 C 213 1182.289062 213.953125 1182.429688 214.914062 1182.527344 C 215.875 1182.625 216.839844 1182.671875 217.804688 1182.675781 L 218.277344 1182.675781 C 218.121094 1182.675781 217.960938 1182.675781 217.804688 1182.675781 C 216.839844 1182.675781 215.875 1182.726562 214.914062 1182.820312 C 213.953125 1182.917969 213 1183.0625 212.054688 1183.25 C 211.109375 1183.441406 210.171875 1183.675781 209.25 1183.957031 C 208.324219 1184.238281 207.417969 1184.566406 206.527344 1184.933594 C 205.636719 1185.304688 204.765625 1185.71875 203.914062 1186.175781 C 203.0625 1186.628906 202.234375 1187.125 201.433594 1187.664062 C 200.628906 1188.199219 199.855469 1188.773438 199.109375 1189.386719 C 198.363281 1190 197.648438 1190.648438 196.96875 1191.328125 C 196.285156 1192.011719 195.636719 1192.726562 195.023438 1193.472656 C 194.410156 1194.21875 193.835938 1194.992188 193.300781 1195.796875 C 192.761719 1196.597656 192.265625 1197.425781 191.8125 1198.277344 C 191.355469 1199.125 190.941406 1199.996094 190.574219 1200.890625 C 190.203125 1201.78125 189.875 1202.6875 189.59375 1203.613281 C 189.3125 1204.535156 189.078125 1205.46875 188.886719 1206.417969 C 188.699219 1207.363281 188.554688 1208.316406 188.460938 1209.277344 C 188.363281 1210.238281 188.3125 1211.199219 188.3125 1212.167969 C 188.3125 1212.324219 188.3125 1212.480469 188.3125 1212.640625 C 188.3125 1212.480469 188.3125 1212.324219 188.3125 1212.167969 C 188.308594 1211.199219 188.261719 1210.238281 188.164062 1209.277344 C 188.070312 1208.316406 187.925781 1207.363281 187.734375 1206.417969 C 187.546875 1205.46875 187.3125 1204.535156 187.03125 1203.613281 C 186.75 1202.6875 186.421875 1201.78125 186.050781 1200.890625 C 185.683594 1199.996094 185.269531 1199.125 184.8125 1198.277344 C 184.359375 1197.425781 183.859375 1196.597656 183.324219 1195.796875 C 182.789062 1194.992188 182.214844 1194.21875 181.601562 1193.472656 C 180.988281 1192.726562 180.339844 1192.011719 179.65625 1191.328125 C 178.976562 1190.648438 178.261719 1190 177.515625 1189.386719 C 176.769531 1188.773438 175.996094 1188.199219 175.191406 1187.664062 C 174.390625 1187.125 173.5625 1186.628906 172.710938 1186.175781 C 171.859375 1185.71875 170.988281 1185.304688 170.097656 1184.933594 C 169.207031 1184.566406 168.300781 1184.238281 167.375 1183.957031 C 166.453125 1183.675781 165.515625 1183.441406 164.570312 1183.25 C 163.625 1183.0625 162.671875 1182.917969 161.710938 1182.820312 C 160.75 1182.726562 159.785156 1182.675781 158.820312 1182.675781 C 158.664062 1182.675781 158.503906 1182.675781 158.347656 1182.675781 L 158.820312 1182.675781 C 159.785156 1182.671875 160.75 1182.625 161.710938 1182.527344 C 162.671875 1182.429688 163.625 1182.289062 164.570312 1182.097656 C 165.515625 1181.910156 166.453125 1181.671875 167.375 1181.390625 C 168.300781 1181.109375 169.207031 1180.785156 170.097656 1180.414062 C 170.988281 1180.042969 171.859375 1179.632812 172.710938 1179.175781 C 173.5625 1178.71875 174.390625 1178.222656 175.191406 1177.6875 C 175.996094 1177.152344 176.769531 1176.574219 177.515625 1175.964844 C 178.261719 1175.351562 178.976562 1174.703125 179.65625 1174.019531 C 180.339844 1173.335938 180.988281 1172.625 181.601562 1171.878906 C 182.214844 1171.132812 182.789062 1170.355469 183.324219 1169.554688 C 183.859375 1168.753906 184.359375 1167.925781 184.8125 1167.074219 C 185.269531 1166.222656 185.683594 1165.351562 186.050781 1164.460938 C 186.421875 1163.570312 186.75 1162.660156 187.03125 1161.738281 C 187.3125 1160.816406 187.546875 1159.878906 187.734375 1158.933594 C 187.925781 1157.988281 188.070312 1157.03125 188.164062 1156.074219 C 188.261719 1155.113281 188.308594 1154.148438 188.3125 1153.183594 C 188.3125 1153.027344 188.3125 1152.867188 188.3125 1152.707031 C 188.3125 1152.867188 188.3125 1153.027344 188.3125 1153.183594 Z M 188.3125 1153.183594 " fill-opacity="1" fill-rule="nonzero"/></g><g clip-path="url(#6690810dc6)"><path fill="#fbdc4d" d="M 640.179688 207.128906 C 640.183594 208.09375 640.230469 209.058594 640.328125 210.015625 C 640.421875 210.976562 640.566406 211.933594 640.757812 212.878906 C 640.945312 213.824219 641.179688 214.757812 641.460938 215.683594 C 641.742188 216.605469 642.070312 217.515625 642.441406 218.40625 C 642.808594 219.296875 643.222656 220.167969 643.679688 221.019531 C 644.136719 221.871094 644.632812 222.695312 645.167969 223.5 C 645.703125 224.300781 646.277344 225.078125 646.890625 225.824219 C 647.503906 226.570312 648.152344 227.28125 648.835938 227.964844 C 649.515625 228.648438 650.230469 229.296875 650.976562 229.910156 C 651.722656 230.519531 652.496094 231.09375 653.300781 231.632812 C 654.101562 232.167969 654.929688 232.664062 655.78125 233.121094 C 656.632812 233.578125 657.503906 233.988281 658.394531 234.359375 C 659.285156 234.730469 660.191406 235.054688 661.117188 235.335938 C 662.039062 235.617188 662.976562 235.855469 663.921875 236.042969 C 664.867188 236.234375 665.820312 236.375 666.78125 236.472656 C 667.742188 236.570312 668.707031 236.617188 669.671875 236.621094 L 670.148438 236.621094 C 669.988281 236.621094 669.828125 236.621094 669.671875 236.621094 C 668.707031 236.621094 667.742188 236.671875 666.78125 236.765625 C 665.820312 236.863281 664.867188 237.007812 663.921875 237.195312 C 662.976562 237.386719 662.039062 237.621094 661.117188 237.902344 C 660.191406 238.183594 659.285156 238.511719 658.394531 238.878906 C 657.503906 239.25 656.632812 239.664062 655.78125 240.121094 C 654.929688 240.574219 654.101562 241.070312 653.300781 241.609375 C 652.496094 242.144531 651.722656 242.71875 650.976562 243.332031 C 650.230469 243.945312 649.515625 244.59375 648.835938 245.273438 C 648.152344 245.957031 647.503906 246.671875 646.890625 247.417969 C 646.277344 248.164062 645.703125 248.9375 645.167969 249.742188 C 644.632812 250.542969 644.132812 251.371094 643.679688 252.21875 C 643.222656 253.070312 642.808594 253.941406 642.441406 254.835938 C 642.070312 255.726562 641.742188 256.632812 641.460938 257.558594 C 641.179688 258.480469 640.945312 259.414062 640.757812 260.363281 C 640.566406 261.308594 640.421875 262.261719 640.328125 263.222656 C 640.230469 264.183594 640.183594 265.144531 640.179688 266.113281 C 640.179688 266.269531 640.179688 266.425781 640.179688 266.585938 C 640.179688 266.425781 640.179688 266.269531 640.179688 266.113281 C 640.179688 265.144531 640.128906 264.183594 640.03125 263.222656 C 639.9375 262.261719 639.792969 261.308594 639.605469 260.363281 C 639.414062 259.414062 639.179688 258.480469 638.898438 257.558594 C 638.617188 256.632812 638.289062 255.726562 637.917969 254.835938 C 637.550781 253.941406 637.136719 253.070312 636.679688 252.21875 C 636.226562 251.371094 635.730469 250.542969 635.191406 249.742188 C 634.65625 248.9375 634.082031 248.164062 633.46875 247.417969 C 632.855469 246.671875 632.207031 245.957031 631.523438 245.273438 C 630.84375 244.59375 630.128906 243.945312 629.382812 243.332031 C 628.636719 242.71875 627.863281 242.144531 627.058594 241.609375 C 626.257812 241.070312 625.429688 240.574219 624.578125 240.121094 C 623.726562 239.664062 622.855469 239.25 621.964844 238.878906 C 621.074219 238.511719 620.167969 238.183594 619.242188 237.902344 C 618.320312 237.621094 617.382812 237.386719 616.4375 237.195312 C 615.492188 237.007812 614.539062 236.863281 613.578125 236.765625 C 612.617188 236.671875 611.652344 236.621094 610.6875 236.621094 C 610.53125 236.621094 610.371094 236.621094 610.214844 236.621094 L 610.6875 236.621094 C 611.652344 236.617188 612.617188 236.570312 613.578125 236.472656 C 614.539062 236.375 615.492188 236.234375 616.4375 236.042969 C 617.382812 235.855469 618.320312 235.617188 619.242188 235.335938 C 620.167969 235.054688 621.074219 234.730469 621.964844 234.359375 C 622.855469 233.988281 623.726562 233.578125 624.578125 233.121094 C 625.429688 232.664062 626.257812 232.167969 627.058594 231.632812 C 627.863281 231.09375 628.636719 230.519531 629.382812 229.90625 C 630.128906 229.296875 630.84375 228.648438 631.523438 227.964844 C 632.207031 227.28125 632.855469 226.570312 633.46875 225.824219 C 634.082031 225.078125 634.65625 224.300781 635.191406 223.5 C 635.730469 222.695312 636.226562 221.871094 636.679688 221.019531 C 637.136719 220.167969 637.550781 219.296875 637.917969 218.40625 C 638.289062 217.515625 638.617188 216.605469 638.898438 215.683594 C 639.179688 214.757812 639.414062 213.824219 639.605469 212.878906 C 639.792969 211.933594 639.9375 210.976562 640.03125 210.015625 C 640.128906 209.058594 640.179688 208.09375 640.179688 207.128906 C 640.179688 206.972656 640.179688 206.8125 640.179688 206.652344 C 640.179688 206.8125 640.179688 206.972656 640.179688 207.128906 Z M 640.179688 207.128906 " fill-opacity="1" fill-rule="nonzero"/></g><g clip-path="url(#07b2621d18)"><path fill="#f4917d" d="M 691.234375 514.445312 C 691.617188 513.488281 692.574219 512.910156 693.535156 513.105469 C 693.726562 513.105469 710.796875 518.664062 710.796875 536.503906 C 710.796875 537.652344 710.027344 538.421875 708.878906 538.421875 C 707.726562 538.421875 706.960938 537.652344 706.960938 536.503906 C 706.960938 521.351562 693.152344 516.941406 692.574219 516.746094 C 691.425781 516.554688 690.847656 515.40625 691.234375 514.445312 Z M 689.507812 530.75 C 691.425781 532.472656 693.34375 535.351562 694.300781 539.570312 C 694.492188 540.53125 695.261719 541.105469 696.21875 541.105469 C 696.410156 541.105469 696.601562 541.105469 696.601562 541.105469 C 697.5625 540.914062 698.328125 539.761719 697.945312 538.804688 C 694.492188 524.035156 682.601562 523.84375 682.601562 523.84375 C 681.453125 523.84375 680.683594 524.609375 680.683594 525.761719 C 680.683594 526.914062 681.453125 527.679688 682.601562 527.679688 C 682.601562 527.679688 683.5625 527.679688 684.710938 528.0625 C 683.945312 528.640625 682.984375 529.40625 682.21875 530.558594 C 680.109375 533.433594 679.726562 536.503906 681.261719 537.652344 C 682.792969 538.804688 685.671875 537.460938 687.78125 534.585938 C 688.738281 533.242188 689.316406 531.898438 689.507812 530.75 Z M 686.4375 884.214844 C 686.820312 884.214844 687.015625 884.214844 687.398438 884.023438 C 688.355469 883.449219 688.546875 882.296875 688.164062 881.339844 C 680.492188 868.296875 685.097656 831.28125 685.097656 830.898438 C 685.289062 829.941406 684.519531 828.980469 683.371094 828.789062 C 682.410156 828.597656 681.453125 829.363281 681.261719 830.515625 C 681.066406 832.050781 676.464844 869.257812 684.710938 883.449219 C 685.097656 883.832031 685.671875 884.214844 686.4375 884.214844 Z M 600.132812 894.382812 C 600.515625 894.574219 600.902344 894.765625 601.285156 894.765625 C 601.859375 894.765625 602.433594 894.574219 602.816406 893.996094 C 603.394531 893.230469 603.203125 891.886719 602.433594 891.3125 C 582.488281 876.351562 577.117188 856.214844 576.925781 855.832031 C 576.734375 854.871094 575.585938 854.105469 574.625 854.488281 C 573.667969 854.679688 572.898438 855.832031 573.28125 856.789062 C 573.472656 857.75 579.035156 878.652344 600.132812 894.382812 Z M 947.273438 1267.21875 C 934.613281 1273.355469 920.613281 1277.191406 905.84375 1278.726562 C 888.585938 1280.644531 863.078125 1282.753906 832.582031 1282.753906 C 798.636719 1282.753906 758.742188 1280.261719 716.933594 1272.207031 C 610.683594 1251.875 441.714844 1258.78125 439.988281 1258.78125 L 352.339844 1261.273438 C 351.191406 1261.273438 327.21875 1259.738281 327.792969 1245.929688 C 328.175781 1238.257812 342.367188 1232.890625 370.179688 1229.820312 C 375.164062 1229.246094 379.960938 1228.863281 384.753906 1228.863281 C 393 1228.667969 418.699219 1226.75 422.34375 1213.902344 L 332.585938 1213.902344 C 331.820312 1213.902344 331.054688 1213.902344 329.902344 1213.902344 C 323.191406 1213.902344 310.53125 1213.132812 308.421875 1207.765625 C 307.460938 1205.269531 308.804688 1202.394531 312.449219 1199.324219 C 315.132812 1197.023438 318.203125 1195.296875 321.847656 1194.148438 C 327.410156 1192.230469 328.75 1190.503906 328.75 1190.121094 C 328.75 1190.121094 328.558594 1187.820312 317.242188 1184.558594 C 296.148438 1178.804688 285.597656 1178.804688 281.953125 1179.1875 L 281.953125 1188.777344 C 281.953125 1194.914062 279.269531 1200.667969 274.667969 1204.503906 C 270.0625 1208.339844 263.925781 1210.257812 257.980469 1209.300781 L 222.117188 1203.929688 C 217.898438 1203.351562 213.679688 1203.546875 209.648438 1204.886719 L 165.730469 1218.695312 C 159.210938 1220.804688 152.496094 1221.765625 145.785156 1221.765625 C 139.457031 1221.765625 133.125 1220.804688 126.988281 1219.082031 L 117.015625 1216.203125 C 114.140625 1215.4375 112.03125 1212.941406 111.835938 1209.875 C 111.453125 1206.804688 112.988281 1204.121094 115.671875 1202.585938 L 126.796875 1196.449219 L 96.6875 1196.640625 C 96.496094 1196.640625 96.304688 1196.640625 96.109375 1196.640625 C 93.042969 1195.683594 90.742188 1192.996094 90.164062 1189.738281 C 89.589844 1186.476562 90.933594 1183.214844 93.617188 1181.296875 C 93.617188 1181.296875 93.808594 1181.296875 93.808594 1181.105469 L 169.375 1140.636719 C 174.554688 1137.953125 178.773438 1133.734375 181.839844 1128.746094 L 338.917969 866.957031 C 348.3125 851.421875 363.273438 840.679688 380.917969 836.460938 C 398.179688 832.433594 415.824219 835.117188 430.976562 844.132812 C 436.730469 840.871094 442.867188 838.570312 449.578125 837.417969 C 465.113281 834.734375 480.648438 838.378906 493.308594 847.585938 L 553.910156 897.640625 L 556.980469 873.859375 C 544.707031 853.144531 541.0625 833.777344 545.855469 816.324219 C 548.925781 805.773438 554.488281 797.527344 560.242188 791.390625 L 429.058594 791.390625 C 413.140625 791.390625 398.179688 784.871094 387.246094 773.363281 C 376.316406 761.664062 370.945312 746.511719 371.902344 730.59375 L 377.273438 583.492188 C 377.464844 580.613281 377.082031 577.738281 376.125 575.050781 L 355.21875 528.0625 C 352.339844 519.816406 353.109375 510.800781 357.519531 503.324219 L 364.425781 491.625 C 363.847656 487.597656 361.929688 467.839844 372.863281 449.429688 L 372.863281 444.25 C 372.863281 442.332031 373.4375 440.414062 374.207031 438.882812 C 375.546875 436.773438 377.082031 436.195312 378.234375 436.195312 C 379.960938 436.195312 381.683594 437.347656 383.21875 439.648438 C 383.410156 439.457031 383.796875 439.265625 383.988281 439.265625 C 385.519531 438.691406 387.246094 439.648438 388.972656 441.566406 C 390.507812 443.292969 391.464844 445.402344 392.234375 447.894531 L 407.578125 506.390625 C 409.109375 511.953125 412.179688 516.941406 416.398438 520.96875 L 417.359375 521.925781 C 417.359375 521.925781 417.550781 522.117188 417.550781 521.925781 C 417.742188 521.925781 417.742188 521.734375 417.742188 521.734375 C 414.480469 487.210938 417.742188 486.253906 419.660156 485.679688 C 420.808594 485.292969 422.34375 485.292969 424.453125 486.636719 C 430.398438 490.472656 435.003906 504.089844 437.878906 525.570312 C 441.714844 554.722656 428.671875 573.515625 425.796875 577.351562 L 446.125 723.6875 C 473.9375 720.621094 533.390625 704.894531 569.445312 694.921875 C 589.777344 689.359375 610.488281 687.632812 631.394531 689.933594 L 637.914062 690.699219 C 659.203125 658.097656 659.589844 625.683594 659.394531 617.628906 L 651.722656 618.394531 C 651.148438 618.394531 650.574219 618.394531 649.808594 618.394531 C 640.984375 618.394531 633.121094 612.257812 631.203125 603.628906 C 630.4375 600.367188 630.820312 596.914062 631.96875 593.464844 L 635.996094 581.574219 C 635.039062 580.804688 634.273438 579.847656 633.886719 578.695312 C 632.738281 575.820312 633.3125 573.902344 634.078125 572.75 C 634.65625 571.601562 635.804688 571.023438 636.765625 570.449219 C 633.3125 566.804688 633.503906 562.203125 636.957031 557.597656 C 637.339844 557.023438 637.722656 556.640625 638.109375 556.066406 C 639.832031 553.761719 641.941406 550.886719 644.246094 548.203125 C 645.203125 547.242188 645.394531 545.707031 644.820312 544.558594 L 642.519531 539.761719 C 642.519531 539.570312 642.328125 539.378906 642.328125 539.378906 C 641.941406 537.460938 642.328125 535.542969 643.476562 534.007812 C 644.628906 532.476562 646.355469 531.324219 648.273438 531.132812 L 650 530.941406 C 657.09375 529.980469 664.382812 528.832031 671.863281 517.707031 C 673.78125 514.636719 676.273438 511.953125 678.765625 509.460938 C 676.273438 505.050781 669.175781 491.433594 674.164062 478.582031 C 678 468.992188 687.589844 462.472656 702.742188 459.019531 C 710.605469 457.292969 718.46875 459.210938 718.660156 459.402344 C 719.042969 459.402344 723.835938 460.746094 729.398438 464.773438 C 734.960938 465.730469 783.101562 474.746094 808.222656 512.335938 C 822.992188 534.390625 827.019531 562.011719 820.691406 594.421875 C 820.691406 594.613281 820.691406 594.804688 820.5 594.996094 C 819.921875 598.257812 819.15625 601.710938 818.199219 605.164062 C 818.199219 605.355469 817.429688 609.765625 815.320312 616.863281 C 815.320312 617.054688 815.320312 617.246094 815.128906 617.4375 C 809.183594 637.765625 793.074219 678.617188 756.058594 699.90625 L 788.46875 719.46875 C 815.511719 735.769531 826.253906 769.71875 813.785156 798.679688 L 784.25 866.378906 L 749.34375 985.480469 C 753.371094 989.890625 771.785156 1011.371094 783.292969 1051.457031 C 785.210938 1058.359375 788.085938 1065.457031 791.539062 1072.9375 C 811.867188 1116.089844 850.226562 1150.226562 896.449219 1166.53125 C 905.269531 1169.597656 915.050781 1172.667969 925.023438 1175.542969 C 931.351562 1177.460938 937.296875 1179.953125 942.476562 1183.023438 C 951.492188 1188.394531 955.328125 1192.996094 954.558594 1197.601562 C 953.601562 1202.585938 946.695312 1206.039062 932.695312 1208.148438 C 930.203125 1208.53125 928.09375 1209.105469 926.175781 1209.683594 C 922.339844 1211.214844 920.039062 1212.941406 919.847656 1214.667969 C 919.652344 1216.394531 921.570312 1218.886719 925.214844 1221.574219 C 927.710938 1223.300781 930.585938 1224.832031 933.847656 1225.984375 C 945.738281 1230.011719 965.875 1238.644531 966.835938 1249 C 967.410156 1254.5625 961.082031 1260.699219 947.273438 1267.21875 Z M 786.746094 722.539062 L 783.101562 720.429688 L 691.042969 907.804688 C 685.289062 919.695312 673.398438 927.367188 660.355469 928.328125 L 595.339844 932.738281 L 650.382812 978.191406 L 682.984375 983.371094 C 708.300781 987.78125 733.234375 974.550781 743.398438 950.957031 L 810.527344 796.953125 C 822.226562 769.71875 812.058594 737.6875 786.746094 722.539062 Z M 807.648438 628.175781 C 796.140625 644.097656 785.019531 657.328125 775.046875 668.261719 C 775.046875 668.261719 775.046875 668.261719 775.046875 668.453125 C 774.851562 668.644531 774.660156 668.835938 774.46875 669.027344 C 757.59375 687.25 743.589844 698.753906 734.960938 705.085938 C 777.347656 691.660156 798.25 653.492188 807.648438 628.175781 Z M 713.097656 747.855469 C 711.753906 748.238281 710.605469 748.621094 709.261719 749.003906 C 706.769531 753.222656 692.960938 775.28125 674.546875 781.992188 C 674.738281 782.953125 674.929688 784.101562 675.316406 785.253906 C 677.234375 784.871094 680.683594 784.101562 684.710938 782.757812 C 687.78125 781.609375 691.234375 780.265625 694.683594 778.347656 C 707.34375 770.867188 713.480469 760.894531 713.097656 747.855469 Z M 649.808594 831.28125 C 648.847656 831.859375 647.890625 832.242188 646.738281 832.433594 C 645.777344 834.925781 643.285156 842.40625 642.902344 851.226562 C 642.710938 856.597656 643.285156 861.585938 644.628906 865.996094 C 644.820312 864.652344 645.394531 862.925781 645.972656 860.625 C 646.546875 858.324219 647.503906 855.449219 648.464844 851.421875 C 651.53125 840.679688 650.765625 834.351562 649.808594 831.28125 Z M 635.996094 833.777344 C 629.667969 839.335938 620.269531 851.035156 623.148438 869.640625 C 624.492188 878.652344 627.75 884.792969 632.929688 888.242188 C 636.574219 890.546875 640.410156 891.121094 643.285156 891.121094 C 636.574219 884.214844 623.722656 866.1875 635.996094 833.777344 Z M 652.492188 885.75 C 650 883.257812 647.890625 880.765625 646.164062 878.078125 C 646.164062 877.886719 645.972656 877.886719 645.972656 877.695312 C 634.65625 859.859375 640.410156 838.953125 642.902344 832.050781 C 642.328125 831.859375 641.558594 831.472656 641.175781 831.28125 C 633.886719 848.542969 632.929688 864.269531 638.109375 876.542969 C 638.683594 877.886719 639.257812 879.230469 640.023438 880.378906 C 640.410156 880.570312 640.601562 880.570312 640.792969 880.957031 C 643.667969 884.601562 648.65625 885.558594 652.492188 885.75 Z M 645.394531 820.160156 C 643.09375 820.160156 641.175781 822.078125 641.175781 824.378906 C 641.175781 826.679688 643.09375 828.597656 645.394531 828.597656 C 647.695312 828.597656 649.613281 826.679688 649.613281 824.378906 C 649.613281 822.078125 647.890625 820.160156 645.394531 820.160156 Z M 655.558594 817.089844 C 654.984375 800.019531 660.355469 788.511719 664.765625 782.183594 C 661.3125 784.101562 657.09375 787.171875 654.027344 791.773438 C 649.613281 798.484375 648.464844 807.117188 650.574219 817.472656 C 651.722656 817.472656 653.449219 817.472656 655.558594 817.089844 Z M 701.207031 746.511719 C 701.398438 746.511719 701.78125 746.511719 702.164062 746.511719 C 699.671875 710.648438 717.699219 696.839844 718.46875 696.261719 C 718.46875 696.261719 718.660156 696.261719 718.660156 696.070312 C 718.082031 693.578125 717.316406 690.699219 716.742188 687.441406 C 710.410156 692.234375 692.191406 709.113281 701.207031 746.511719 Z M 815.703125 599.601562 C 810.910156 602.667969 804.582031 604.203125 799.402344 604.972656 C 799.019531 609.191406 796.71875 627.601562 785.019531 651 C 793.457031 640.835938 802.472656 629.136719 811.867188 615.710938 C 813.976562 608.808594 814.746094 604.203125 814.746094 604.011719 C 815.128906 602.667969 815.320312 601.136719 815.703125 599.601562 Z M 771.976562 665.769531 C 790.773438 637.191406 794.800781 612.066406 795.375 605.546875 C 792.496094 605.929688 790.386719 605.929688 790.195312 605.929688 C 787.128906 606.121094 784.25 606.3125 781.375 606.3125 C 779.265625 606.3125 777.15625 606.3125 775.046875 606.121094 C 774.851562 615.328125 772.167969 653.683594 742.441406 693.960938 C 750.496094 687.441406 760.46875 678.234375 771.976562 665.769531 Z M 704.082031 749.964844 C 701.398438 750.347656 699.863281 750.347656 699.671875 750.347656 C 698.714844 750.347656 698.136719 749.773438 697.753906 748.8125 C 697.371094 747.46875 696.988281 745.9375 696.796875 744.59375 C 692.960938 749.195312 686.246094 758.785156 688.164062 768.757812 C 695.453125 762.238281 701.207031 754.375 704.082031 749.964844 Z M 712.328125 710.070312 C 710.605469 713.332031 708.878906 717.550781 707.535156 722.921875 C 716.550781 718.316406 720.191406 706.425781 720.960938 704.125 C 720.578125 702.976562 720.191406 701.632812 719.808594 700.097656 C 718.273438 701.441406 715.207031 704.703125 712.328125 710.070312 Z M 706 732.511719 C 719.617188 727.90625 728.25 715.25 731.316406 709.878906 C 729.207031 710.453125 727.097656 710.839844 724.988281 711.414062 C 724.796875 711.414062 724.796875 711.414062 724.605469 711.414062 C 724.414062 711.414062 724.222656 711.414062 724.027344 711.414062 C 724.027344 711.414062 723.835938 711.414062 723.835938 711.414062 C 723.644531 711.414062 723.644531 711.414062 723.453125 711.222656 C 723.453125 711.222656 723.261719 711.222656 723.261719 711.03125 C 723.261719 711.03125 723.070312 710.839844 723.070312 710.839844 C 723.070312 710.839844 722.878906 710.648438 722.878906 710.648438 C 722.878906 710.648438 722.878906 710.648438 722.878906 710.453125 C 722.878906 710.453125 722.878906 710.453125 722.878906 710.261719 C 722.878906 710.261719 722.878906 710.261719 722.878906 710.070312 C 720.578125 715.632812 715.78125 724.070312 707.152344 727.332031 C 706.960938 727.332031 706.960938 727.332031 706.769531 727.332031 C 706.382812 729.058594 706.191406 730.785156 706 732.511719 Z M 751.839844 601.136719 C 747.617188 611.875 725.5625 668.070312 732.46875 695.113281 C 734.960938 679.769531 743.589844 642.945312 769.867188 614.175781 C 770.25 613.792969 770.632812 613.601562 771.015625 613.601562 C 771.402344 610.148438 771.402344 607.464844 771.59375 605.929688 C 764.304688 604.972656 757.59375 603.4375 751.839844 601.136719 Z M 736.113281 696.070312 C 759.511719 666.152344 767.375 636.808594 770.058594 619.546875 C 746.277344 647.546875 738.414062 681.878906 736.113281 696.070312 Z M 818.773438 582.53125 C 809.566406 581.957031 773.511719 576.777344 746.46875 535.542969 C 746.46875 535.734375 746.660156 535.925781 746.660156 536.308594 C 753.179688 566.421875 767.949219 582.339844 779.457031 590.394531 C 790.773438 598.449219 800.9375 600.367188 802.664062 600.75 C 808.222656 599.601562 814.363281 597.300781 817.238281 593.65625 C 817.8125 589.628906 818.390625 585.984375 818.773438 582.53125 Z M 718.082031 473.785156 C 718.660156 477.816406 719.042969 482.800781 718.660156 488.9375 C 718.46875 490.664062 718.273438 492.964844 718.082031 495.652344 C 717.507812 501.019531 716.933594 508.308594 716.742188 516.746094 C 717.316406 521.925781 726.332031 598.449219 790.195312 602.09375 C 790.578125 602.09375 791.730469 602.09375 793.457031 601.902344 C 779.265625 596.722656 752.414062 580.996094 742.824219 536.886719 C 734.195312 496.609375 723.644531 480.117188 718.082031 473.785156 Z M 717.316406 538.996094 C 719.042969 556.066406 723.835938 573.902344 735.921875 586.175781 C 743.976562 594.421875 754.714844 599.601562 767.949219 601.519531 C 737.261719 590.011719 723.453125 559.902344 717.316406 538.996094 Z M 725.753906 706.621094 C 727.097656 705.851562 729.015625 704.507812 731.316406 702.785156 C 717.699219 677.277344 743.398438 611.109375 748.195312 599.410156 C 743.785156 597.300781 739.753906 594.613281 736.113281 591.355469 C 703.507812 630.671875 721.726562 693.960938 725.753906 706.621094 Z M 695.644531 737.304688 C 693.152344 737.882812 687.589844 739.796875 682.792969 744.402344 C 680.875 750.921875 677.617188 766.839844 680.492188 774.894531 C 682.027344 773.9375 683.5625 772.785156 685.097656 771.636719 C 680.683594 756.867188 692.960938 743.25 696.21875 739.992188 C 695.835938 739.03125 695.835938 738.265625 695.644531 737.304688 Z M 677.039062 751.882812 C 673.398438 758.785156 672.4375 767.609375 673.972656 778.15625 C 674.929688 777.773438 676.082031 777.390625 677.039062 776.8125 C 674.355469 770.101562 675.507812 759.359375 677.039062 751.882812 Z M 670.519531 781.226562 C 667.453125 784.675781 661.699219 792.734375 659.972656 805.773438 C 667.835938 803.664062 673.398438 794.074219 675.890625 788.898438 C 674.738281 789.089844 674.164062 789.28125 674.164062 789.28125 C 674.164062 789.28125 673.972656 789.28125 673.972656 789.28125 C 673.011719 789.28125 672.246094 788.703125 672.054688 787.746094 C 671.480469 785.636719 670.902344 783.335938 670.519531 781.226562 Z M 672.054688 809.992188 C 678.191406 804.816406 681.835938 797.144531 682.984375 787.171875 C 682.027344 787.363281 681.261719 787.746094 680.492188 787.9375 C 678.765625 791.964844 671.480469 807.882812 659.394531 809.800781 C 659.203125 811.910156 659.203125 814.019531 659.203125 816.324219 C 663.421875 815.363281 668.027344 813.445312 672.054688 809.992188 Z M 745.125 705.277344 C 742.25 706.425781 739.371094 707.578125 736.304688 708.535156 C 736.304688 708.730469 736.304688 709.113281 736.113281 709.304688 C 735.726562 710.261719 725.5625 731.167969 705.808594 736.730469 C 705.617188 739.605469 705.808594 742.675781 706 745.9375 C 706.382812 745.9375 706.769531 745.746094 707.34375 745.746094 C 707.535156 745.746094 707.726562 745.550781 707.917969 745.550781 C 709.644531 745.167969 711.753906 744.59375 713.863281 743.828125 C 714.054688 743.632812 714.441406 743.441406 714.824219 743.441406 C 725.753906 739.222656 739.949219 729.25 745.125 705.277344 Z M 735.535156 469.566406 C 740.140625 474.363281 744.550781 481.265625 747.617188 490.855469 C 758.167969 524.804688 783.675781 551.460938 816.089844 562.203125 L 819.921875 563.542969 C 819.539062 544.75 814.746094 528.253906 805.347656 514.253906 C 785.402344 484.335938 750.304688 473.210938 735.535156 469.566406 Z M 717.890625 462.855469 C 717.890625 462.855469 716.550781 462.472656 714.441406 462.28125 C 715.015625 463.429688 715.78125 465.15625 716.550781 467.457031 C 719.808594 469.566406 732.660156 480.5 743.589844 523.269531 C 770.441406 573.324219 810.71875 578.3125 819.347656 578.886719 C 819.730469 575.050781 819.921875 571.40625 819.921875 567.765625 L 814.9375 566.039062 C 781.375 554.914062 754.90625 527.296875 743.976562 492.199219 C 740.140625 479.539062 733.425781 472.253906 727.863281 468.035156 C 727.671875 468.035156 727.671875 467.839844 727.480469 467.839844 C 722.496094 464.003906 718.273438 462.855469 717.890625 462.855469 Z M 681.835938 506.390625 C 682.601562 505.816406 683.179688 505.242188 683.945312 504.664062 C 683.179688 499.101562 681.261719 474.9375 702.355469 462.855469 C 689.316406 466.117188 681.066406 471.675781 678 479.734375 C 673.78125 490.089844 679.34375 501.789062 681.835938 506.390625 Z M 649.039062 573.710938 C 646.546875 563.351562 641.558594 561.242188 639.640625 560.859375 C 637.722656 563.734375 637.914062 566.230469 640.027344 568.339844 C 642.136719 570.257812 643.667969 571.214844 649.039062 573.710938 Z M 367.875 485.871094 L 370.179688 482.035156 C 370.371094 481.652344 370.945312 481.265625 371.519531 481.074219 C 372.097656 480.882812 372.671875 481.074219 373.054688 481.457031 C 373.246094 481.652344 373.4375 481.652344 373.628906 482.035156 C 373.246094 477.621094 373.054688 473.210938 373.054688 468.800781 L 373.054688 458.058594 C 368.261719 468.609375 367.683594 479.347656 367.875 485.871094 Z M 429.058594 787.746094 L 563.691406 787.746094 C 565.609375 786.019531 567.527344 784.484375 569.253906 783.144531 L 583.0625 747.664062 C 583.449219 746.703125 584.597656 746.128906 585.558594 746.511719 C 586.515625 746.894531 587.089844 748.046875 586.707031 749.003906 L 574.816406 779.308594 C 575.777344 778.730469 576.351562 778.347656 576.542969 778.347656 L 695.261719 720.234375 C 696.21875 710.261719 699.480469 702.785156 702.546875 697.605469 C 703.125 696.644531 703.699219 695.6875 704.273438 694.921875 C 703.125 695.304688 701.972656 695.6875 700.4375 696.261719 L 698.90625 696.839844 C 698.710938 696.839844 698.519531 696.839844 698.328125 696.839844 C 697.5625 696.839844 696.796875 696.261719 696.410156 695.496094 C 696.027344 694.535156 696.601562 693.386719 697.5625 693.003906 L 699.097656 692.425781 C 701.972656 691.46875 703.125 691.085938 705.808594 689.933594 C 706.578125 689.550781 707.34375 689.742188 707.726562 690.125 C 710.988281 686.480469 714.054688 684.371094 715.589844 683.222656 C 710.796875 656.945312 709.070312 616.863281 732.851562 588.667969 C 714.441406 569.875 711.753906 539.761719 712.523438 516.746094 C 712.523438 516.746094 712.523438 516.746094 712.523438 516.554688 C 712.714844 508.117188 713.480469 500.636719 713.863281 495.265625 C 714.054688 492.582031 714.246094 490.28125 714.441406 488.746094 C 715.398438 473.019531 711.753906 465.539062 710.21875 463.238281 C 686.628906 471.675781 686.246094 493.734375 687.015625 501.980469 C 698.136719 493.734375 709.644531 489.707031 710.21875 489.320312 C 711.179688 488.9375 712.328125 489.515625 712.714844 490.472656 C 713.097656 491.433594 712.523438 492.582031 711.5625 492.964844 C 711.371094 492.964844 686.4375 502.171875 674.738281 519.625 C 666.300781 532.28125 657.667969 533.433594 650.191406 534.585938 L 648.464844 534.777344 C 647.503906 534.96875 646.738281 535.351562 646.355469 536.117188 C 645.972656 536.886719 645.585938 537.652344 645.777344 538.421875 L 647.890625 543.023438 C 649.039062 545.707031 648.65625 548.777344 646.738281 550.886719 C 644.820312 553.1875 642.902344 555.488281 641.367188 557.597656 C 645.011719 558.941406 650.574219 563.160156 652.875 575.628906 C 656.136719 576.96875 656.902344 577.160156 657.09375 577.160156 C 658.246094 577.160156 659.011719 577.929688 659.011719 579.078125 C 659.011719 580.230469 658.054688 580.996094 657.09375 580.996094 C 656.519531 580.996094 655.367188 580.996094 647.890625 577.546875 C 644.054688 575.820312 641.941406 574.667969 640.023438 573.515625 C 639.257812 573.515625 637.722656 574.09375 637.148438 574.859375 C 636.765625 575.433594 636.957031 576.203125 637.339844 577.160156 C 638.109375 579.269531 641.558594 579.847656 642.710938 580.039062 C 643.859375 580.039062 644.628906 580.996094 644.4375 582.148438 C 644.4375 583.105469 643.476562 583.875 642.519531 583.875 C 642.519531 583.875 642.519531 583.875 642.328125 583.875 C 642.136719 583.875 640.792969 583.683594 639.257812 583.296875 L 635.421875 594.613281 C 634.464844 597.492188 634.273438 600.175781 634.847656 602.667969 C 636.574219 610.148438 643.476562 615.136719 651.148438 614.367188 L 684.519531 611.109375 C 685.480469 611.109375 686.4375 611.683594 686.628906 612.835938 C 686.820312 613.792969 686.054688 614.753906 684.902344 614.945312 L 663.039062 617.054688 C 663.230469 623.765625 663.039062 647.355469 650.957031 674.207031 C 651.339844 675.359375 652.492188 678.234375 654.601562 681.304688 C 655.175781 682.261719 654.984375 683.414062 654.027344 683.988281 C 653.640625 684.179688 653.257812 684.371094 652.875 684.371094 C 652.300781 684.371094 651.722656 683.988281 651.339844 683.605469 C 650.191406 681.878906 649.421875 680.34375 648.65625 679 C 646.355469 683.796875 643.476562 688.589844 640.21875 693.578125 C 638.300781 696.453125 636.191406 699.332031 633.886719 702.207031 C 633.503906 702.785156 632.929688 702.976562 632.355469 702.976562 C 631.96875 702.976562 631.585938 702.785156 631.203125 702.589844 C 630.4375 702.015625 630.246094 700.671875 630.820312 699.90625 C 632.355469 697.988281 633.695312 696.070312 635.039062 694.152344 L 630.628906 693.578125 C 610.296875 691.277344 589.777344 693.003906 570.023438 698.371094 C 533.582031 708.535156 473.359375 724.457031 445.359375 727.332031 C 445.167969 727.523438 444.785156 727.714844 444.402344 727.714844 C 444.402344 727.714844 444.207031 727.714844 444.207031 727.714844 C 443.824219 727.714844 443.632812 727.523438 443.25 727.523438 C 441.140625 727.714844 439.222656 727.714844 437.6875 727.714844 C 436.921875 727.714844 436.152344 727.714844 435.578125 727.714844 C 434.425781 727.714844 433.660156 726.757812 433.851562 725.605469 C 433.851562 724.457031 434.8125 723.6875 435.960938 723.878906 C 437.6875 724.070312 439.796875 723.878906 442.097656 723.6875 L 421.769531 576.777344 C 421.769531 576.203125 421.769531 575.628906 422.152344 575.242188 C 422.34375 575.050781 437.878906 556.066406 433.851562 525.761719 C 430.015625 496.609375 423.878906 490.664062 421.960938 489.515625 C 421.578125 489.128906 421.003906 489.128906 420.617188 489.128906 C 419.851562 490.855469 419.085938 499.296875 421.195312 521.160156 C 421.386719 522.886719 420.425781 524.417969 418.890625 525.1875 C 417.359375 525.953125 415.632812 525.761719 414.289062 524.609375 L 413.332031 523.652344 C 408.535156 519.242188 405.082031 513.679688 403.359375 507.351562 L 388.015625 448.855469 C 387.4375 446.9375 386.671875 445.210938 385.519531 444.058594 C 385.136719 443.484375 384.753906 443.292969 384.5625 443.101562 C 384.371094 443.484375 383.988281 444.441406 383.796875 446.359375 C 382.644531 457.484375 392.808594 507.351562 392.808594 507.734375 C 393 508.691406 392.425781 509.84375 391.273438 510.035156 C 390.316406 510.226562 389.164062 509.652344 388.972656 508.5 C 388.589844 506.390625 378.617188 457.675781 379.765625 445.785156 C 379.765625 444.828125 379.960938 443.867188 380.152344 443.101562 C 380.152344 442.910156 379.960938 442.910156 379.960938 442.71875 C 378.234375 439.839844 377.273438 439.839844 377.273438 439.839844 C 377.273438 439.839844 376.890625 440.03125 376.507812 440.609375 C 375.933594 441.566406 375.546875 442.71875 375.546875 444.058594 L 375.546875 468.609375 C 375.546875 478.007812 376.316406 487.402344 377.851562 496.609375 L 381.300781 517.324219 C 381.492188 518.28125 380.726562 519.433594 379.765625 519.625 C 379.574219 519.625 379.574219 519.625 379.382812 519.625 C 378.425781 519.625 377.65625 519.050781 377.464844 518.089844 L 375.355469 497.378906 C 375.164062 496.609375 375.164062 495.652344 374.972656 494.882812 C 374.589844 497.378906 374.015625 499.871094 373.054688 502.363281 L 369.21875 513.871094 L 371.519531 524.996094 C 371.710938 525.953125 371.136719 527.105469 369.984375 527.296875 C 369.027344 527.488281 367.875 526.914062 367.683594 525.761719 L 365.191406 514.253906 C 365.191406 513.871094 365.191406 513.488281 365.191406 513.296875 L 369.21875 501.40625 C 370.179688 498.527344 370.945312 495.652344 371.136719 492.964844 C 371.328125 490.664062 371.328125 488.9375 371.136719 487.789062 L 360.589844 505.816406 C 356.753906 512.335938 355.984375 520.199219 358.480469 527.296875 L 379.382812 574.285156 C 380.535156 577.546875 381.109375 580.996094 380.726562 584.257812 L 375.355469 731.359375 C 374.398438 746.320312 379.382812 760.511719 389.546875 771.445312 C 400.289062 781.800781 414.097656 787.746094 429.058594 787.746094 Z M 560.433594 874.050781 L 556.980469 900.902344 L 590.925781 928.902344 L 659.972656 924.109375 C 671.671875 923.339844 682.21875 916.246094 687.398438 905.695312 L 705.234375 869.449219 C 700.246094 851.613281 703.316406 828.789062 714.441406 801.363281 C 722.6875 780.839844 732.851562 765.308594 732.851562 765.113281 C 733.425781 764.15625 734.578125 763.964844 735.535156 764.539062 C 736.496094 765.113281 736.6875 766.265625 736.113281 767.226562 C 735.726562 767.800781 700.054688 823.417969 707.917969 864.078125 L 779.648438 718.125 C 779.648438 718.125 779.648438 718.125 779.648438 717.933594 L 752.222656 701.441406 C 751.261719 702.015625 750.304688 702.398438 749.34375 702.976562 C 744.550781 729.632812 729.015625 741.332031 716.742188 746.320312 C 718.273438 769.71875 700.246094 780.648438 687.011719 785.445312 C 685.863281 797.335938 681.644531 806.542969 674.355469 812.679688 C 666.683594 819.199219 657.863281 820.734375 652.683594 820.925781 C 653.066406 821.882812 653.449219 823.035156 653.449219 824.1875 C 653.449219 825.527344 653.066406 826.679688 652.492188 827.828125 C 653.640625 830.515625 655.945312 837.804688 652.109375 852.378906 C 651.148438 856.40625 650.191406 859.285156 649.613281 861.585938 C 647.503906 868.679688 647.503906 868.679688 649.230469 875.777344 L 649.230469 875.96875 C 651.722656 879.613281 654.601562 882.875 658.4375 885.75 C 659.011719 886.132812 659.394531 887.09375 659.203125 887.667969 C 659.011719 888.433594 658.4375 889.011719 657.667969 889.011719 C 657.476562 889.011719 655.945312 889.203125 653.835938 889.203125 C 651.722656 889.203125 649.039062 889.011719 646.164062 888.242188 C 647.695312 889.585938 648.65625 890.351562 648.65625 890.351562 C 649.230469 890.738281 649.613281 891.503906 649.421875 892.269531 C 649.230469 893.039062 648.847656 893.613281 648.082031 893.804688 C 647.886719 893.804688 645.777344 894.382812 642.710938 894.382812 C 639.449219 894.382812 635.039062 893.804688 630.820312 890.929688 C 624.683594 886.902344 620.847656 879.804688 619.3125 869.832031 C 615.476562 844.707031 632.546875 830.707031 637.914062 827.0625 C 637.53125 826.105469 637.339844 825.144531 637.339844 824.1875 C 637.339844 819.773438 640.984375 816.132812 645.394531 816.132812 C 645.777344 816.132812 646.164062 816.132812 646.355469 816.324219 C 644.628906 805.773438 645.96875 796.761719 650.765625 789.664062 C 656.902344 780.265625 666.492188 776.8125 669.753906 775.855469 C 668.410156 763.964844 670.328125 754.183594 675.507812 746.703125 C 676.65625 744.785156 678.191406 743.25 679.535156 741.910156 C 685.480469 735.964844 692.382812 733.851562 695.261719 733.277344 C 695.070312 730.210938 694.875 727.332031 695.070312 724.648438 L 578.269531 781.800781 C 578.078125 781.800781 556.023438 793.691406 549.308594 817.664062 C 544.707031 834.351562 548.351562 852.761719 560.242188 872.707031 C 560.433594 873.09375 560.625 873.476562 560.433594 874.050781 Z M 133.316406 1192.613281 L 223.074219 1142.554688 C 226.144531 1140.832031 228.636719 1138.527344 230.554688 1135.652344 L 411.796875 862.160156 C 416.015625 856.023438 421.195312 850.652344 427.140625 846.625 C 413.140625 838.761719 397.21875 836.652344 381.492188 840.296875 C 364.808594 844.324219 350.808594 854.488281 341.984375 869.066406 L 184.71875 1131.046875 C 181.457031 1136.609375 176.664062 1141.214844 170.910156 1144.28125 L 95.34375 1184.75 C 93.808594 1185.902344 93.234375 1187.625 93.425781 1189.351562 C 93.617188 1191.078125 94.769531 1192.421875 96.496094 1192.996094 Z M 278.117188 1176.3125 C 278.117188 1166.914062 282.722656 1157.898438 290.203125 1152.335938 C 328.175781 1124.335938 453.222656 1026.140625 465.496094 935.421875 C 465.6875 934.464844 466.648438 933.699219 467.605469 933.699219 C 468.566406 933.890625 469.332031 934.847656 469.332031 935.808594 C 466.839844 953.644531 460.128906 971.863281 450.730469 989.890625 L 469.523438 1020.386719 L 489.664062 991.234375 C 490.238281 990.660156 533.199219 934.082031 490.429688 850.652344 C 478.730469 842.214844 464.347656 838.761719 450.152344 841.445312 C 443.632812 842.597656 437.496094 844.898438 432.125 848.160156 C 432.125 848.160156 431.933594 848.351562 431.933594 848.351562 C 425.414062 852.378906 419.660156 857.75 415.25 864.460938 L 233.625 1137.761719 C 231.324219 1141.214844 228.253906 1143.898438 224.800781 1146.007812 L 117.015625 1206.230469 C 115.671875 1206.996094 115.097656 1208.339844 115.289062 1209.683594 C 115.480469 1211.023438 116.441406 1212.367188 117.785156 1212.75 L 127.757812 1215.628906 C 139.839844 1219.078125 152.304688 1219.078125 164.386719 1215.246094 L 208.308594 1201.433594 C 212.910156 1199.902344 217.898438 1199.515625 222.5 1200.285156 L 258.363281 1205.65625 C 263.351562 1206.421875 268.144531 1204.886719 271.980469 1201.820312 C 275.816406 1198.558594 277.925781 1193.957031 277.925781 1188.96875 L 277.925781 1176.3125 Z M 429.25 1078.882812 L 467.03125 1023.839844 L 448.429688 993.726562 C 437.304688 1013.671875 422.726562 1033.234375 406.808594 1051.648438 L 424.835938 1085.976562 C 427.332031 1082.140625 428.867188 1079.457031 429.25 1078.882812 Z M 422.921875 1210.066406 C 422.535156 1206.613281 419.660156 1197.214844 403.550781 1183.023438 C 383.21875 1164.996094 409.496094 1113.019531 422.726562 1090.007812 L 404.316406 1054.910156 C 363.082031 1101.511719 314.175781 1139.679688 292.503906 1155.597656 C 286.175781 1160.199219 282.339844 1167.679688 281.953125 1175.351562 C 286.367188 1174.96875 297.296875 1175.160156 318.203125 1180.914062 C 327.984375 1183.597656 332.394531 1186.476562 332.394531 1189.929688 C 332.394531 1192.996094 329.328125 1195.488281 322.996094 1197.792969 C 319.929688 1198.941406 317.242188 1200.285156 314.941406 1202.394531 C 312.449219 1204.503906 311.875 1205.847656 312.066406 1206.421875 C 313.023438 1208.914062 323.382812 1210.257812 332.585938 1210.066406 Z M 963 1249.191406 C 962.230469 1242.285156 946.886719 1234.421875 932.503906 1229.4375 C 928.859375 1228.09375 925.597656 1226.558594 922.914062 1224.640625 C 917.734375 1220.996094 915.433594 1217.546875 916.011719 1214.09375 C 916.394531 1210.832031 919.460938 1208.148438 924.832031 1206.039062 C 926.941406 1205.269531 929.433594 1204.695312 932.121094 1204.121094 C 948.039062 1201.820312 950.53125 1198.175781 950.722656 1196.640625 C 951.300781 1194.148438 947.464844 1190.3125 940.558594 1186.09375 C 935.574219 1183.214844 930.011719 1180.722656 923.875 1178.996094 C 913.707031 1176.121094 904.121094 1173.050781 895.105469 1169.789062 C 847.925781 1153.105469 808.800781 1118.390625 788.085938 1074.277344 C 784.441406 1066.609375 781.566406 1059.128906 779.648438 1052.222656 C 767.375 1008.878906 746.085938 987.207031 745.894531 987.015625 C 745.316406 986.441406 745.125 985.863281 745.316406 985.097656 L 772.167969 893.996094 L 746.851562 952.109375 C 737.261719 973.972656 715.972656 987.589844 692.765625 987.589844 C 689.316406 987.589844 685.863281 987.207031 682.21875 986.632812 L 655.945312 982.414062 L 713.671875 1029.976562 C 714.441406 1030.742188 714.632812 1031.894531 713.863281 1032.660156 C 713.097656 1033.429688 711.945312 1033.621094 711.179688 1032.851562 L 497.140625 856.023438 C 534.925781 937.535156 492.921875 992.386719 492.347656 992.960938 L 470.675781 1024.414062 L 432.316406 1080.417969 C 431.933594 1081.183594 382.453125 1158.859375 405.851562 1179.570312 C 427.523438 1198.75 426.753906 1210.257812 426.5625 1211.601562 C 425.03125 1229.054688 396.835938 1231.738281 384.945312 1232.121094 C 380.34375 1232.3125 375.546875 1232.503906 370.753906 1233.082031 C 342.367188 1236.148438 332.011719 1241.519531 331.820312 1245.546875 C 331.246094 1255.519531 352.339844 1256.863281 352.535156 1256.863281 L 439.988281 1254.371094 C 441.714844 1254.371094 611.066406 1247.273438 717.890625 1267.792969 C 796.527344 1282.945312 869.214844 1278.34375 905.652344 1274.316406 C 920.039062 1272.78125 933.464844 1268.945312 945.929688 1263 C 961.847656 1255.902344 963.191406 1251.109375 963 1249.191406 Z M 547.773438 943.09375 C 547.773438 941.945312 546.816406 941.175781 545.855469 941.175781 C 544.707031 941.175781 543.9375 942.136719 543.9375 943.09375 C 543.9375 943.480469 544.898438 990.277344 519.964844 1022.878906 C 494.457031 1056.441406 489.855469 1098.828125 489.855469 1099.210938 C 489.664062 1100.171875 490.429688 1101.128906 491.582031 1101.320312 C 491.582031 1101.320312 491.773438 1101.320312 491.773438 1101.320312 C 492.730469 1101.320312 493.5 1100.554688 493.691406 1099.59375 C 493.691406 1099.210938 498.101562 1057.785156 523.035156 1025.179688 C 548.734375 991.617188 547.773438 945.011719 547.773438 943.09375 Z M 608.957031 1005.425781 C 607.996094 1005.808594 607.613281 1006.960938 607.996094 1007.921875 C 608.1875 1008.304688 625.640625 1045.703125 576.351562 1098.0625 C 525.144531 1152.527344 556.597656 1220.039062 556.789062 1220.804688 C 557.171875 1221.574219 557.746094 1221.957031 558.515625 1221.957031 C 558.707031 1221.957031 559.089844 1221.957031 559.28125 1221.765625 C 560.242188 1221.382812 560.625 1220.230469 560.242188 1219.273438 C 559.859375 1218.695312 529.746094 1153.296875 579.035156 1100.9375 C 630.242188 1046.46875 612.023438 1008.113281 611.257812 1006.386719 C 611.066406 1005.234375 609.914062 1004.851562 608.957031 1005.425781 Z M 547.007812 1100.554688 C 547.582031 1099.59375 547.390625 1098.445312 546.433594 1097.871094 C 545.472656 1097.292969 544.324219 1097.484375 543.746094 1098.445312 C 543.171875 1099.210938 491.390625 1181.296875 543.9375 1239.984375 C 544.324219 1240.367188 544.898438 1240.558594 545.28125 1240.558594 C 545.664062 1240.558594 546.242188 1240.367188 546.625 1239.984375 C 547.390625 1239.21875 547.390625 1238.066406 546.816406 1237.300781 C 496.183594 1180.914062 546.433594 1101.320312 547.007812 1100.554688 Z M 704.851562 1049.730469 C 703.699219 1049.730469 702.933594 1050.6875 702.933594 1051.648438 C 702.933594 1052.605469 705.042969 1143.707031 670.328125 1167.488281 C 669.367188 1168.0625 669.175781 1169.214844 669.753906 1170.171875 C 670.136719 1170.75 670.710938 1170.941406 671.285156 1170.941406 C 671.671875 1170.941406 672.054688 1170.75 672.4375 1170.558594 C 687.78125 1160.007812 698.328125 1136.800781 703.507812 1101.320312 C 707.34375 1075.238281 706.769531 1051.648438 706.769531 1051.457031 C 706.769531 1050.496094 705.808594 1049.730469 704.851562 1049.730469 Z M 829.128906 1208.914062 C 829.320312 1209.105469 829.703125 1209.105469 829.898438 1209.105469 C 830.664062 1209.105469 831.238281 1208.722656 831.621094 1207.957031 C 832.007812 1206.996094 831.621094 1205.847656 830.664062 1205.464844 C 785.59375 1183.984375 772.933594 1117.433594 769.675781 1090.007812 C 761.234375 1019.234375 735.535156 996.222656 734.578125 995.453125 C 733.808594 994.6875 732.660156 994.878906 731.890625 995.644531 C 731.125 996.414062 731.316406 997.5625 732.085938 998.332031 C 732.277344 998.523438 757.59375 1021.34375 766.03125 1090.582031 C 770.058594 1123.378906 778.304688 1150.804688 790.964844 1171.898438 C 801.320312 1188.96875 814.554688 1201.820312 829.128906 1208.914062 Z M 881.105469 1251.492188 C 828.9375 1247.847656 775.8125 1194.148438 775.238281 1193.570312 C 774.46875 1192.804688 773.320312 1192.804688 772.550781 1193.570312 C 771.785156 1194.339844 771.785156 1195.488281 772.550781 1196.257812 C 772.742188 1196.449219 786.359375 1210.257812 806.308594 1224.257812 C 824.910156 1237.300781 852.71875 1253.21875 880.914062 1255.136719 C 880.914062 1255.136719 880.914062 1255.136719 881.105469 1255.136719 C 882.0625 1255.136719 883.023438 1254.371094 883.023438 1253.410156 C 883.023438 1252.453125 882.253906 1251.492188 881.105469 1251.492188 Z M 713.671875 1042.824219 C 712.90625 1043.59375 712.90625 1044.742188 713.671875 1045.511719 C 713.863281 1045.703125 726.714844 1059.511719 713.097656 1113.210938 C 712.90625 1114.171875 713.480469 1115.320312 714.441406 1115.515625 C 714.632812 1115.515625 714.824219 1115.515625 714.824219 1115.515625 C 715.589844 1115.515625 716.550781 1114.9375 716.742188 1113.980469 C 730.933594 1057.785156 716.742188 1043.210938 716.164062 1042.632812 C 715.589844 1042.058594 714.441406 1042.058594 713.671875 1042.824219 Z M 732.660156 1049.730469 C 731.699219 1050.113281 731.125 1051.265625 731.507812 1052.222656 C 731.507812 1052.414062 737.835938 1069.484375 732.46875 1089.429688 C 732.277344 1090.390625 732.851562 1091.539062 733.808594 1091.730469 C 734.003906 1091.730469 734.195312 1091.730469 734.386719 1091.730469 C 735.152344 1091.730469 735.921875 1091.15625 736.304688 1090.390625 C 741.867188 1069.101562 735.34375 1051.457031 735.152344 1050.6875 C 734.769531 1049.921875 733.617188 1049.347656 732.660156 1049.730469 Z M 785.019531 438.496094 C 785.210938 438.691406 785.59375 438.691406 785.785156 438.691406 C 786.550781 438.691406 787.128906 438.304688 787.511719 437.539062 L 791.921875 427.757812 C 792.304688 426.796875 791.921875 425.648438 790.964844 425.265625 C 790.003906 424.878906 788.855469 425.265625 788.46875 426.222656 L 784.058594 436.003906 C 783.675781 436.964844 784.058594 437.921875 785.019531 438.496094 Z M 775.621094 459.402344 C 775.8125 459.59375 776.195312 459.59375 776.386719 459.59375 C 777.15625 459.59375 777.730469 459.210938 778.113281 458.445312 L 782.523438 448.472656 C 782.910156 447.511719 782.523438 446.359375 781.566406 445.976562 C 780.605469 445.59375 779.457031 445.976562 779.074219 446.9375 L 774.660156 456.910156 C 774.277344 457.867188 774.660156 459.019531 775.621094 459.402344 Z M 824.910156 412.03125 C 825.292969 412.222656 825.675781 412.414062 825.871094 412.414062 C 826.445312 412.414062 827.210938 412.03125 827.402344 411.457031 L 834.308594 400.523438 C 834.882812 399.566406 834.691406 398.414062 833.734375 397.839844 C 832.773438 397.261719 831.621094 397.453125 831.046875 398.414062 L 824.144531 409.347656 C 823.757812 410.304688 824.144531 411.457031 824.910156 412.03125 Z M 803.046875 446.359375 C 803.429688 446.554688 803.8125 446.746094 804.003906 446.746094 C 804.582031 446.746094 805.347656 446.359375 805.539062 445.785156 L 820.5 422.578125 C 821.074219 421.621094 820.882812 420.46875 819.921875 419.894531 C 818.964844 419.320312 817.8125 419.511719 817.238281 420.46875 L 802.472656 443.675781 C 801.894531 444.636719 802.085938 445.785156 803.046875 446.359375 Z M 790.964844 465.347656 C 791.347656 465.539062 791.730469 465.730469 791.921875 465.730469 C 792.496094 465.730469 793.265625 465.347656 793.457031 464.773438 L 800.359375 454.03125 C 800.9375 453.074219 800.746094 451.921875 799.785156 451.347656 C 798.828125 450.773438 797.675781 450.964844 797.101562 451.921875 L 790.195312 462.664062 C 789.8125 463.621094 790.003906 464.773438 790.964844 465.347656 Z M 804.003906 473.019531 C 803.429688 473.785156 803.621094 475.128906 804.390625 475.703125 C 804.773438 475.898438 805.15625 476.089844 805.539062 476.089844 C 806.113281 476.089844 806.691406 475.898438 807.074219 475.320312 L 823.375 452.691406 C 823.953125 451.921875 823.757812 450.582031 822.992188 450.003906 C 822.226562 449.429688 820.882812 449.621094 820.308594 450.390625 Z M 841.597656 459.59375 C 842.171875 459.59375 842.746094 459.402344 843.128906 459.019531 L 848.5 452.691406 C 849.265625 451.921875 849.074219 450.582031 848.308594 450.003906 C 847.542969 449.238281 846.390625 449.429688 845.625 450.195312 L 840.253906 456.527344 C 839.484375 457.292969 839.679688 458.636719 840.445312 459.210938 C 840.636719 459.402344 841.210938 459.59375 841.597656 459.59375 Z M 826.0625 477.816406 C 826.636719 477.816406 827.210938 477.621094 827.59375 477.238281 L 837.953125 465.15625 C 838.71875 464.390625 838.527344 463.046875 837.761719 462.472656 C 836.992188 461.703125 835.84375 461.894531 835.074219 462.664062 L 824.71875 474.746094 C 823.953125 475.511719 824.144531 476.855469 824.910156 477.429688 C 825.101562 477.621094 825.484375 477.816406 826.0625 477.816406 Z M 818.773438 481.265625 L 815.320312 485.292969 C 814.554688 486.0625 814.746094 487.402344 815.511719 487.980469 C 815.894531 488.363281 816.28125 488.363281 816.855469 488.363281 C 817.429688 488.363281 818.007812 488.171875 818.390625 487.789062 L 821.839844 483.761719 C 822.609375 482.992188 822.417969 481.652344 821.648438 481.074219 C 820.691406 480.5 819.539062 480.5 818.773438 481.265625 Z M 879.761719 453.265625 C 880.144531 453.265625 880.722656 453.074219 881.105469 452.691406 L 886.667969 447.703125 C 887.433594 446.9375 887.433594 445.785156 886.859375 445.019531 C 886.089844 444.25 884.941406 444.25 884.171875 444.828125 L 878.609375 449.8125 C 877.84375 450.582031 877.84375 451.730469 878.417969 452.5 C 878.609375 453.074219 879.1875 453.265625 879.761719 453.265625 Z M 860.007812 470.910156 C 860.390625 470.910156 860.964844 470.71875 861.351562 470.335938 L 874.007812 459.019531 C 874.777344 458.253906 874.777344 457.101562 874.199219 456.335938 C 873.433594 455.566406 872.28125 455.566406 871.515625 456.140625 L 858.855469 467.457031 C 858.089844 468.226562 858.089844 469.375 858.664062 470.144531 C 858.855469 470.71875 859.433594 470.910156 860.007812 470.910156 Z M 843.515625 483.761719 C 843.898438 484.144531 844.472656 484.335938 844.855469 484.335938 C 845.238281 484.335938 845.816406 484.144531 846.199219 483.761719 L 852.335938 478.199219 C 853.101562 477.429688 853.101562 476.28125 852.527344 475.511719 C 851.761719 474.746094 850.609375 474.746094 849.84375 475.320312 L 843.707031 480.882812 C 842.9375 481.652344 842.746094 482.992188 843.515625 483.761719 Z M 826.0625 501.214844 C 826.445312 501.214844 827.019531 501.019531 827.402344 500.636719 L 836.417969 492.582031 C 837.183594 491.816406 837.183594 490.664062 836.609375 489.898438 C 835.84375 489.128906 834.691406 489.128906 833.925781 489.707031 L 824.910156 497.761719 C 824.144531 498.527344 824.144531 499.679688 824.71875 500.445312 C 824.910156 501.019531 825.484375 501.214844 826.0625 501.214844 Z M 855.597656 506.007812 C 855.789062 506.007812 855.980469 506.007812 856.171875 505.816406 L 869.40625 501.019531 C 870.363281 500.636719 870.941406 499.488281 870.554688 498.527344 C 870.171875 497.570312 869.023438 496.992188 868.0625 497.378906 L 854.828125 502.171875 C 853.871094 502.554688 853.296875 503.707031 853.679688 504.664062 C 854.0625 505.625 854.828125 506.007812 855.597656 506.007812 Z M 844.089844 506.199219 L 830.664062 510.996094 C 829.703125 511.378906 829.128906 512.527344 829.511719 513.488281 C 829.703125 514.253906 830.472656 514.828125 831.238281 514.828125 C 831.429688 514.828125 831.621094 514.828125 831.816406 514.636719 L 845.238281 509.84375 C 846.199219 509.460938 846.773438 508.308594 846.390625 507.351562 C 846.199219 506.390625 845.238281 505.816406 844.089844 506.199219 Z M 869.40625 524.035156 C 869.597656 524.996094 870.363281 525.570312 871.324219 525.570312 C 871.515625 525.570312 871.515625 525.570312 871.707031 525.570312 L 899.324219 521.160156 C 900.285156 520.96875 901.050781 520.007812 900.859375 519.050781 C 900.667969 518.089844 899.707031 517.324219 898.75 517.515625 L 871.132812 521.925781 C 869.980469 522.117188 869.40625 523.078125 869.40625 524.035156 Z M 854.445312 528.445312 L 863.84375 526.914062 C 864.800781 526.722656 865.570312 525.761719 865.378906 524.804688 C 865.1875 523.84375 864.226562 523.078125 863.269531 523.269531 L 853.871094 524.804688 C 852.910156 524.996094 852.144531 525.953125 852.335938 526.914062 C 852.527344 527.871094 853.296875 528.445312 854.253906 528.445312 C 854.253906 528.445312 854.253906 528.445312 854.445312 528.445312 Z M 844.855469 526.144531 L 837.566406 527.296875 C 836.609375 527.488281 835.84375 528.445312 836.035156 529.40625 C 836.226562 530.363281 836.992188 530.941406 837.953125 530.941406 C 838.144531 530.941406 838.144531 530.941406 838.335938 530.941406 L 845.625 529.789062 C 846.582031 529.597656 847.347656 528.640625 847.15625 527.679688 C 846.773438 526.722656 845.816406 525.953125 844.855469 526.144531 Z M 897.40625 545.132812 C 898.558594 545.132812 899.324219 544.367188 899.324219 543.214844 C 899.324219 542.0625 898.558594 541.296875 897.40625 541.296875 L 891.84375 541.296875 C 890.695312 541.296875 889.925781 542.0625 889.925781 543.214844 C 889.925781 544.367188 890.695312 545.132812 891.84375 545.132812 Z M 884.171875 545.132812 C 885.324219 545.132812 886.089844 544.367188 886.089844 543.214844 C 886.089844 542.0625 885.324219 541.296875 884.171875 541.296875 L 874.199219 541.296875 C 873.050781 541.296875 872.28125 542.0625 872.28125 543.214844 C 872.28125 544.367188 873.050781 545.132812 874.199219 545.132812 Z M 838.144531 543.214844 C 838.144531 544.367188 838.910156 545.132812 840.0625 545.132812 L 863.84375 545.132812 C 864.996094 545.132812 865.761719 544.367188 865.761719 543.214844 C 865.761719 542.0625 864.996094 541.296875 863.84375 541.296875 L 840.0625 541.296875 C 838.910156 541.296875 838.144531 542.0625 838.144531 543.214844 Z M 908.53125 568.148438 L 927.132812 569.683594 C 927.132812 569.683594 927.324219 569.683594 927.324219 569.683594 C 928.285156 569.683594 929.242188 568.914062 929.242188 567.957031 C 929.242188 566.996094 928.476562 566.039062 927.515625 565.847656 L 908.914062 564.3125 C 907.761719 564.121094 906.996094 565.078125 906.804688 566.039062 C 906.804688 566.996094 907.570312 567.957031 908.53125 568.148438 Z M 899.132812 563.351562 L 892.804688 562.777344 C 891.652344 562.585938 890.886719 563.542969 890.695312 564.503906 C 890.695312 565.652344 891.460938 566.421875 892.421875 566.613281 L 898.75 567.1875 C 898.75 567.1875 898.941406 567.1875 898.941406 567.1875 C 899.898438 567.1875 900.859375 566.421875 900.859375 565.460938 C 901.050781 564.503906 900.285156 563.542969 899.132812 563.351562 Z M 857.898438 561.816406 C 857.898438 562.96875 858.664062 563.734375 859.625 563.929688 L 884.171875 566.039062 C 884.171875 566.039062 884.363281 566.039062 884.363281 566.039062 C 885.324219 566.039062 886.28125 565.269531 886.28125 564.3125 C 886.28125 563.160156 885.515625 562.394531 884.558594 562.203125 L 860.007812 560.09375 C 858.855469 559.902344 857.898438 560.667969 857.898438 561.816406 Z M 851.953125 563.160156 C 851.953125 563.160156 852.144531 563.160156 851.953125 563.160156 C 853.101562 563.160156 853.871094 562.394531 854.0625 561.433594 C 854.0625 560.285156 853.296875 559.515625 852.335938 559.324219 L 841.402344 558.367188 C 840.253906 558.175781 839.484375 559.132812 839.292969 560.09375 C 839.292969 561.242188 840.0625 562.011719 841.019531 562.203125 Z M 862.117188 582.722656 C 861.160156 582.53125 860.007812 583.105469 859.816406 584.257812 C 859.625 585.214844 860.199219 586.367188 861.351562 586.558594 L 877.84375 589.820312 C 878.035156 589.820312 878.035156 589.820312 878.226562 589.820312 C 879.1875 589.820312 879.953125 589.246094 880.144531 588.285156 C 880.335938 587.328125 879.761719 586.175781 878.609375 585.984375 Z M 840.828125 582.53125 L 852.71875 584.832031 C 852.910156 584.832031 852.910156 584.832031 853.101562 584.832031 C 854.0625 584.832031 854.828125 584.257812 855.019531 583.296875 C 855.214844 582.339844 854.636719 581.1875 853.488281 580.996094 L 841.597656 578.695312 C 840.636719 578.503906 839.484375 579.078125 839.292969 580.230469 C 839.101562 581.378906 839.871094 582.339844 840.828125 582.53125 Z M 473.742188 626.257812 C 473.742188 625.492188 474.320312 624.726562 475.085938 624.535156 C 492.730469 620.3125 495.800781 617.4375 500.019531 599.601562 C 500.210938 598.832031 500.976562 598.257812 501.746094 598.257812 C 502.511719 598.257812 503.28125 598.832031 503.472656 599.601562 C 507.691406 617.246094 510.566406 620.3125 528.402344 624.535156 C 529.171875 624.726562 529.746094 625.492188 529.746094 626.257812 C 529.746094 627.027344 529.171875 627.792969 528.402344 627.984375 C 510.757812 632.203125 507.691406 635.082031 503.472656 652.917969 C 503.28125 653.683594 502.511719 654.261719 501.746094 654.261719 C 500.976562 654.261719 500.210938 653.683594 500.019531 652.917969 C 495.800781 635.273438 492.921875 632.203125 475.085938 627.984375 C 474.320312 627.792969 473.742188 627.027344 473.742188 626.257812 Z M 482.566406 626.257812 C 493.882812 629.710938 498.292969 633.929688 501.746094 645.4375 C 505.199219 634.121094 509.417969 629.710938 520.925781 626.257812 C 509.609375 622.808594 505.199219 618.589844 501.746094 607.082031 C 498.292969 618.589844 494.074219 622.808594 482.566406 626.257812 Z M 858.664062 798.871094 C 857.898438 798.679688 857.324219 797.910156 857.324219 797.144531 C 857.324219 796.375 857.898438 795.609375 858.664062 795.417969 C 876.308594 791.199219 879.378906 788.320312 883.597656 770.484375 C 883.789062 769.71875 884.558594 769.140625 885.324219 769.140625 C 886.089844 769.140625 886.859375 769.71875 887.050781 770.484375 C 891.269531 788.128906 894.144531 791.199219 911.984375 795.417969 C 912.75 795.609375 913.324219 796.375 913.324219 797.144531 C 913.324219 797.910156 912.75 798.679688 911.984375 798.871094 C 894.339844 803.089844 891.269531 805.964844 887.050781 823.800781 C 886.859375 824.570312 886.089844 825.144531 885.324219 825.144531 C 884.558594 825.144531 883.789062 824.570312 883.597656 823.800781 C 879.378906 806.15625 876.308594 803.089844 858.664062 798.871094 Z M 866.144531 797.144531 C 877.460938 800.597656 881.871094 804.816406 885.324219 816.324219 C 888.777344 805.007812 892.996094 800.597656 904.503906 797.144531 C 893.1875 793.691406 888.777344 789.472656 885.324219 777.964844 C 881.871094 789.472656 877.460938 793.691406 866.144531 797.144531 Z M 516.703125 442.910156 C 525.527344 445.019531 531.664062 446.9375 536.074219 449.621094 C 534.734375 452.5 533.007812 455.757812 530.515625 459.59375 C 529.9375 460.363281 530.128906 461.511719 530.898438 462.28125 C 531.664062 463.046875 532.625 463.046875 533.582031 462.664062 C 537.417969 460.171875 540.679688 458.445312 543.554688 457.101562 C 546.242188 461.511719 548.160156 467.648438 550.269531 476.472656 C 550.460938 477.429688 551.417969 478.007812 552.378906 478.007812 C 553.335938 478.007812 554.296875 477.238281 554.488281 476.472656 C 556.597656 467.648438 558.515625 461.511719 561.199219 457.101562 C 564.078125 458.445312 567.335938 460.171875 571.171875 462.664062 C 571.554688 462.855469 571.941406 463.046875 572.324219 463.046875 C 572.898438 463.046875 573.472656 462.855469 573.859375 462.472656 C 574.625 461.703125 574.625 460.746094 574.242188 459.785156 C 571.75 455.949219 570.023438 452.691406 568.679688 449.8125 C 573.089844 447.128906 579.226562 445.210938 588.050781 443.101562 C 589.007812 442.910156 589.585938 441.949219 589.585938 440.992188 C 589.585938 440.03125 588.816406 439.074219 588.050781 438.882812 C 579.226562 436.773438 573.089844 434.855469 568.679688 432.167969 C 570.023438 429.292969 571.75 426.03125 574.242188 422.195312 C 574.816406 421.429688 574.625 420.277344 573.859375 419.511719 C 573.089844 418.742188 572.132812 418.742188 571.171875 419.128906 C 567.335938 421.429688 564.078125 423.347656 561.199219 424.6875 C 558.515625 420.277344 556.597656 414.140625 554.488281 405.316406 C 554.296875 404.359375 553.335938 403.785156 552.378906 403.785156 C 551.417969 403.785156 550.460938 404.550781 550.269531 405.316406 C 548.160156 414.140625 546.242188 420.277344 543.554688 424.6875 C 540.679688 423.347656 537.417969 421.621094 533.582031 419.128906 C 532.816406 418.550781 531.664062 418.742188 530.898438 419.511719 C 530.128906 420.277344 530.128906 421.238281 530.515625 422.195312 C 533.007812 426.03125 534.734375 429.292969 536.074219 432.167969 C 531.664062 434.855469 525.527344 436.773438 516.703125 438.882812 C 515.746094 439.074219 515.171875 440.03125 515.171875 440.992188 C 515.171875 441.949219 515.746094 442.71875 516.703125 442.910156 Z M 869.023438 946.546875 C 869.023438 945.78125 868.445312 945.203125 867.871094 945.011719 C 861.542969 943.480469 857.128906 942.136719 853.871094 940.21875 C 854.828125 938.109375 856.171875 935.808594 857.898438 933.121094 C 858.28125 932.546875 858.089844 931.78125 857.707031 931.203125 C 857.128906 930.628906 856.363281 930.628906 855.789062 931.011719 C 852.910156 932.738281 850.609375 934.082031 848.691406 935.039062 C 846.773438 931.78125 845.429688 927.367188 843.898438 921.039062 C 843.707031 920.273438 843.128906 919.890625 842.363281 919.890625 C 841.597656 919.890625 841.019531 920.464844 840.828125 921.039062 C 839.292969 927.367188 837.953125 931.78125 836.035156 935.039062 C 833.925781 934.082031 831.621094 932.738281 828.9375 931.011719 C 828.363281 930.628906 827.59375 930.820312 827.019531 931.203125 C 826.445312 931.78125 826.445312 932.546875 826.828125 933.121094 C 828.554688 936 829.898438 938.300781 830.855469 940.21875 C 827.59375 942.136719 823.183594 943.480469 816.855469 945.011719 C 816.089844 945.207031 815.703125 945.78125 815.703125 946.546875 C 815.703125 947.316406 816.28125 947.890625 816.855469 948.082031 C 823.183594 949.617188 827.59375 950.957031 830.855469 952.875 C 829.898438 954.984375 828.554688 957.289062 826.828125 959.972656 C 826.445312 960.546875 826.636719 961.316406 827.019531 961.890625 C 827.59375 962.464844 828.363281 962.464844 828.9375 962.082031 C 831.816406 960.355469 834.117188 959.015625 836.035156 958.054688 C 837.953125 961.316406 839.292969 965.726562 840.828125 972.054688 C 841.019531 972.824219 841.597656 973.207031 842.363281 973.207031 C 843.128906 973.207031 843.707031 972.632812 843.898438 972.054688 C 845.429688 965.726562 846.773438 961.316406 848.691406 958.054688 C 850.800781 959.015625 853.101562 960.355469 855.789062 962.082031 C 855.980469 962.273438 856.363281 962.273438 856.554688 962.273438 C 856.9375 962.273438 857.324219 962.082031 857.707031 961.890625 C 858.28125 961.316406 858.28125 960.546875 857.898438 959.972656 C 856.171875 957.097656 854.828125 954.792969 853.871094 952.875 C 857.128906 950.957031 861.542969 949.617188 867.871094 948.082031 C 868.445312 947.890625 869.023438 947.316406 869.023438 946.546875 Z M 906.804688 891.503906 C 906.804688 885.367188 911.789062 880.378906 917.929688 880.378906 C 924.066406 880.378906 929.050781 885.367188 929.050781 891.503906 C 929.050781 897.640625 924.066406 902.628906 917.929688 902.628906 C 911.789062 902.628906 906.804688 897.640625 906.804688 891.503906 Z M 910.640625 891.503906 C 910.640625 895.53125 913.902344 898.792969 917.929688 898.792969 C 921.957031 898.792969 925.214844 895.53125 925.214844 891.503906 C 925.214844 887.476562 921.957031 884.214844 917.929688 884.214844 C 913.902344 884.214844 910.640625 887.476562 910.640625 891.503906 Z M 572.707031 541.871094 C 572.707031 548.007812 567.722656 552.996094 561.582031 552.996094 C 555.445312 552.996094 550.460938 548.007812 550.460938 541.871094 C 550.460938 535.734375 555.445312 530.75 561.582031 530.75 C 567.722656 530.75 572.707031 535.734375 572.707031 541.871094 Z M 568.871094 541.871094 C 568.871094 537.84375 565.609375 534.585938 561.582031 534.585938 C 557.554688 534.585938 554.296875 537.84375 554.296875 541.871094 C 554.296875 545.898438 557.554688 549.160156 561.582031 549.160156 C 565.609375 549.160156 568.871094 546.089844 568.871094 541.871094 Z M 639.257812 409.539062 C 641.75 409.539062 643.859375 407.429688 643.859375 404.933594 C 643.859375 402.441406 641.75 400.332031 639.257812 400.332031 C 636.765625 400.332031 634.65625 402.441406 634.65625 404.933594 C 634.65625 407.429688 636.765625 409.539062 639.257812 409.539062 Z M 866.144531 1085.976562 C 870.363281 1085.976562 873.625 1082.527344 873.625 1078.5 C 873.625 1074.472656 870.171875 1071.019531 866.144531 1071.019531 C 862.117188 1071.019531 858.664062 1074.472656 858.664062 1078.5 C 858.664062 1082.527344 861.925781 1085.976562 866.144531 1085.976562 Z M 672.820312 689.742188 C 673.203125 688.976562 674.164062 688.589844 675.121094 688.78125 C 675.890625 688.976562 676.464844 689.933594 676.464844 690.699219 C 676.082031 697.796875 676.65625 698.753906 682.792969 702.398438 C 683.5625 702.785156 683.945312 703.742188 683.753906 704.703125 C 683.5625 705.46875 682.792969 706.042969 681.835938 706.042969 C 674.738281 705.660156 673.78125 706.234375 670.136719 712.371094 C 669.753906 712.949219 669.175781 713.332031 668.410156 713.332031 C 668.21875 713.332031 668.027344 713.332031 667.835938 713.332031 C 667.066406 713.140625 666.492188 712.179688 666.492188 711.414062 C 666.875 704.316406 666.300781 703.359375 660.164062 699.714844 C 659.394531 699.332031 659.011719 698.371094 659.203125 697.414062 C 659.394531 696.644531 660.164062 696.070312 661.121094 696.070312 C 668.21875 696.453125 669.175781 695.878906 672.820312 689.742188 Z M 667.066406 699.714844 C 668.792969 701.25 669.753906 702.976562 670.136719 705.46875 C 671.671875 703.742188 673.398438 702.785156 675.890625 702.398438 C 674.164062 700.867188 673.203125 699.140625 672.820312 696.644531 C 671.09375 698.371094 669.367188 699.332031 667.066406 699.714844 Z M 682.601562 699.714844 C 685.097656 699.714844 687.972656 699.523438 690.65625 698.949219 C 691.617188 698.753906 692.382812 697.796875 692.191406 696.644531 C 692 695.6875 691.042969 694.921875 689.890625 695.113281 C 687.398438 695.496094 684.902344 695.878906 682.601562 695.878906 C 681.453125 695.878906 680.683594 696.839844 680.683594 697.796875 C 680.683594 698.753906 681.453125 699.714844 682.601562 699.714844 Z M 662.65625 694.34375 C 663.039062 694.535156 663.421875 694.726562 663.617188 694.726562 C 664.191406 694.726562 664.957031 694.34375 665.148438 693.769531 C 665.726562 692.808594 665.535156 691.660156 664.574219 691.085938 C 662.464844 689.742188 660.546875 688.015625 658.628906 686.097656 C 657.863281 685.332031 656.710938 685.332031 655.945312 686.097656 C 655.175781 686.863281 655.175781 688.015625 655.945312 688.78125 C 658.054688 690.890625 660.355469 692.808594 662.65625 694.34375 Z M 662.65625 694.34375 " fill-opacity="1" fill-rule="nonzero"/></g><g fill="#000000" fill-opacity="1"><g transform="translate(129.76118, 1506.31919)"><g><path d="M 39.8125 8.5 L 33.4375 -0.078125 C 31.539062 0.304688 29.695312 0.5 27.90625 0.5 C 23.226562 0.5 18.941406 -0.582031 15.046875 -2.75 C 11.148438 -4.925781 8.054688 -7.960938 5.765625 -11.859375 C 3.484375 -15.753906 2.34375 -20.132812 2.34375 -25 C 2.34375 -29.863281 3.484375 -34.226562 5.765625 -38.09375 C 8.054688 -41.96875 11.148438 -44.988281 15.046875 -47.15625 C 18.941406 -49.332031 23.226562 -50.421875 27.90625 -50.421875 C 32.582031 -50.421875 36.867188 -49.332031 40.765625 -47.15625 C 44.660156 -44.988281 47.726562 -41.96875 49.96875 -38.09375 C 52.207031 -34.226562 53.328125 -29.863281 53.328125 -25 C 53.328125 -20.75 52.460938 -16.863281 50.734375 -13.34375 C 49.015625 -9.832031 46.625 -6.921875 43.5625 -4.609375 L 54.46875 8.5 Z M 14.734375 -25 C 14.734375 -20.613281 15.925781 -17.109375 18.3125 -14.484375 C 20.695312 -11.859375 23.894531 -10.546875 27.90625 -10.546875 C 31.875 -10.546875 35.050781 -11.867188 37.4375 -14.515625 C 39.820312 -17.160156 41.015625 -20.65625 41.015625 -25 C 41.015625 -29.394531 39.820312 -32.898438 37.4375 -35.515625 C 35.050781 -38.140625 31.875 -39.453125 27.90625 -39.453125 C 23.894531 -39.453125 20.695312 -38.148438 18.3125 -35.546875 C 15.925781 -32.953125 14.734375 -29.4375 14.734375 -25 Z M 14.734375 -25 "/></g></g></g><g fill="#000000" fill-opacity="1"><g transform="translate(203.486798, 1506.31919)"><g><path d="M 16.296875 -49.71875 L 16.296875 -19.96875 C 16.296875 -17 17.023438 -14.707031 18.484375 -13.09375 C 19.953125 -11.488281 22.101562 -10.6875 24.9375 -10.6875 C 27.769531 -10.6875 29.941406 -11.488281 31.453125 -13.09375 C 32.960938 -14.707031 33.71875 -17 33.71875 -19.96875 L 33.71875 -49.71875 L 45.828125 -49.71875 L 45.828125 -20.046875 C 45.828125 -15.609375 44.878906 -11.851562 42.984375 -8.78125 C 41.097656 -5.707031 38.5625 -3.390625 35.375 -1.828125 C 32.1875 -0.273438 28.632812 0.5 24.71875 0.5 C 20.800781 0.5 17.296875 -0.265625 14.203125 -1.796875 C 11.109375 -3.335938 8.660156 -5.65625 6.859375 -8.75 C 5.066406 -11.84375 4.171875 -15.609375 4.171875 -20.046875 L 4.171875 -49.71875 Z M 16.296875 -49.71875 "/></g></g></g><g fill="#000000" fill-opacity="1"><g transform="translate(271.33451, 1506.31919)"><g><path d="M 16.5 -40.015625 L 16.5 -29.953125 L 32.71875 -29.953125 L 32.71875 -20.609375 L 16.5 -20.609375 L 16.5 -9.703125 L 34.84375 -9.703125 L 34.84375 0 L 4.390625 0 L 4.390625 -49.71875 L 34.84375 -49.71875 L 34.84375 -40.015625 Z M 16.5 -40.015625 "/></g></g></g><g fill="#000000" fill-opacity="1"><g transform="translate(327.568037, 1506.31919)"><g><path d="M 16.5 -40.015625 L 16.5 -29.953125 L 32.71875 -29.953125 L 32.71875 -20.609375 L 16.5 -20.609375 L 16.5 -9.703125 L 34.84375 -9.703125 L 34.84375 0 L 4.390625 0 L 4.390625 -49.71875 L 34.84375 -49.71875 L 34.84375 -40.015625 Z M 16.5 -40.015625 "/></g></g></g><g fill="#000000" fill-opacity="1"><g transform="translate(383.801586, 1506.31919)"><g><path d="M 48.875 0 L 36.765625 0 L 16.5 -30.671875 L 16.5 0 L 4.390625 0 L 4.390625 -49.71875 L 16.5 -49.71875 L 36.765625 -18.90625 L 36.765625 -49.71875 L 48.875 -49.71875 Z M 48.875 0 "/></g></g></g><g fill="#000000" fill-opacity="1"><g transform="translate(454.977761, 1506.31919)"><g/></g></g><g fill="#000000" fill-opacity="1"><g transform="translate(487.912109, 1506.31919)"><g><path d="M 27.90625 0.5 C 23.226562 0.5 18.941406 -0.582031 15.046875 -2.75 C 11.148438 -4.925781 8.054688 -7.960938 5.765625 -11.859375 C 3.484375 -15.753906 2.34375 -20.132812 2.34375 -25 C 2.34375 -29.863281 3.484375 -34.226562 5.765625 -38.09375 C 8.054688 -41.96875 11.148438 -44.988281 15.046875 -47.15625 C 18.941406 -49.332031 23.226562 -50.421875 27.90625 -50.421875 C 32.582031 -50.421875 36.867188 -49.332031 40.765625 -47.15625 C 44.660156 -44.988281 47.726562 -41.96875 49.96875 -38.09375 C 52.207031 -34.226562 53.328125 -29.863281 53.328125 -25 C 53.328125 -20.132812 52.191406 -15.753906 49.921875 -11.859375 C 47.660156 -7.960938 44.59375 -4.925781 40.71875 -2.75 C 36.851562 -0.582031 32.582031 0.5 27.90625 0.5 Z M 27.90625 -10.546875 C 31.875 -10.546875 35.050781 -11.867188 37.4375 -14.515625 C 39.820312 -17.160156 41.015625 -20.65625 41.015625 -25 C 41.015625 -29.394531 39.820312 -32.898438 37.4375 -35.515625 C 35.050781 -38.140625 31.875 -39.453125 27.90625 -39.453125 C 23.894531 -39.453125 20.695312 -38.148438 18.3125 -35.546875 C 15.925781 -32.953125 14.734375 -29.4375 14.734375 -25 C 14.734375 -20.613281 15.925781 -17.109375 18.3125 -14.484375 C 20.695312 -11.859375 23.894531 -10.546875 27.90625 -10.546875 Z M 27.90625 -10.546875 "/></g></g></g><g fill="#000000" fill-opacity="1"><g transform="translate(561.496104, 1506.31919)"><g><path d="M 36.765625 -49.71875 L 36.765625 -40.015625 L 16.5 -40.015625 L 16.5 -29.53125 L 31.65625 -29.53125 L 31.65625 -20.109375 L 16.5 -20.109375 L 16.5 0 L 4.390625 0 L 4.390625 -49.71875 Z M 36.765625 -49.71875 "/></g></g></g><g fill="#000000" fill-opacity="1"><g transform="translate(618.154554, 1506.31919)"><g/></g></g><g fill="#000000" fill-opacity="1"><g transform="translate(651.088948, 1506.31919)"><g><path d="M 2.34375 -24.9375 C 2.34375 -29.84375 3.40625 -34.21875 5.53125 -38.0625 C 7.65625 -41.914062 10.613281 -44.914062 14.40625 -47.0625 C 18.207031 -49.207031 22.519531 -50.28125 27.34375 -50.28125 C 33.238281 -50.28125 38.285156 -48.722656 42.484375 -45.609375 C 46.691406 -42.492188 49.503906 -38.242188 50.921875 -32.859375 L 37.609375 -32.859375 C 36.617188 -34.941406 35.210938 -36.523438 33.390625 -37.609375 C 31.578125 -38.691406 29.515625 -39.234375 27.203125 -39.234375 C 23.472656 -39.234375 20.445312 -37.9375 18.125 -35.34375 C 15.8125 -32.75 14.65625 -29.28125 14.65625 -24.9375 C 14.65625 -20.59375 15.8125 -17.117188 18.125 -14.515625 C 20.445312 -11.921875 23.472656 -10.625 27.203125 -10.625 C 29.515625 -10.625 31.578125 -11.164062 33.390625 -12.25 C 35.210938 -13.332031 36.617188 -14.914062 37.609375 -17 L 50.921875 -17 C 49.503906 -11.613281 46.691406 -7.375 42.484375 -4.28125 C 38.285156 -1.1875 33.238281 0.359375 27.34375 0.359375 C 22.519531 0.359375 18.207031 -0.710938 14.40625 -2.859375 C 10.613281 -5.015625 7.65625 -8.003906 5.53125 -11.828125 C 3.40625 -15.648438 2.34375 -20.019531 2.34375 -24.9375 Z M 2.34375 -24.9375 "/></g></g></g><g fill="#000000" fill-opacity="1"><g transform="translate(722.973292, 1506.31919)"><g><path d="M 16.296875 -49.71875 L 16.296875 -19.96875 C 16.296875 -17 17.023438 -14.707031 18.484375 -13.09375 C 19.953125 -11.488281 22.101562 -10.6875 24.9375 -10.6875 C 27.769531 -10.6875 29.941406 -11.488281 31.453125 -13.09375 C 32.960938 -14.707031 33.71875 -17 33.71875 -19.96875 L 33.71875 -49.71875 L 45.828125 -49.71875 L 45.828125 -20.046875 C 45.828125 -15.609375 44.878906 -11.851562 42.984375 -8.78125 C 41.097656 -5.707031 38.5625 -3.390625 35.375 -1.828125 C 32.1875 -0.273438 28.632812 0.5 24.71875 0.5 C 20.800781 0.5 17.296875 -0.265625 14.203125 -1.796875 C 11.109375 -3.335938 8.660156 -5.65625 6.859375 -8.75 C 5.066406 -11.84375 4.171875 -15.609375 4.171875 -20.046875 L 4.171875 -49.71875 Z M 16.296875 -49.71875 "/></g></g></g><g fill="#000000" fill-opacity="1"><g transform="translate(790.820971, 1506.31919)"><g><path d="M 42.28125 -33.71875 C 42.28125 -30.832031 41.617188 -28.195312 40.296875 -25.8125 C 38.972656 -23.425781 36.941406 -21.5 34.203125 -20.03125 C 31.472656 -18.570312 28.078125 -17.84375 24.015625 -17.84375 L 16.5 -17.84375 L 16.5 0 L 4.390625 0 L 4.390625 -49.71875 L 24.015625 -49.71875 C 27.972656 -49.71875 31.320312 -49.03125 34.0625 -47.65625 C 36.800781 -46.289062 38.851562 -44.40625 40.21875 -42 C 41.59375 -39.59375 42.28125 -36.832031 42.28125 -33.71875 Z M 23.09375 -27.484375 C 25.40625 -27.484375 27.125 -28.023438 28.25 -29.109375 C 29.382812 -30.191406 29.953125 -31.726562 29.953125 -33.71875 C 29.953125 -35.695312 29.382812 -37.226562 28.25 -38.3125 C 27.125 -39.40625 25.40625 -39.953125 23.09375 -39.953125 L 16.5 -39.953125 L 16.5 -27.484375 Z M 23.09375 -27.484375 "/></g></g></g><g fill="#000000" fill-opacity="1"><g transform="translate(852.932424, 1506.31919)"><g><path d="M 22.375 0.5 C 18.738281 0.5 15.476562 -0.0859375 12.59375 -1.265625 C 9.71875 -2.453125 7.414062 -4.203125 5.6875 -6.515625 C 3.96875 -8.828125 3.0625 -11.613281 2.96875 -14.875 L 15.859375 -14.875 C 16.054688 -13.03125 16.695312 -11.625 17.78125 -10.65625 C 18.863281 -9.6875 20.28125 -9.203125 22.03125 -9.203125 C 23.820312 -9.203125 25.234375 -9.613281 26.265625 -10.4375 C 27.304688 -11.269531 27.828125 -12.414062 27.828125 -13.875 C 27.828125 -15.101562 27.414062 -16.117188 26.59375 -16.921875 C 25.769531 -17.722656 24.753906 -18.382812 23.546875 -18.90625 C 22.347656 -19.425781 20.640625 -20.019531 18.421875 -20.6875 C 15.203125 -21.675781 12.578125 -22.664062 10.546875 -23.65625 C 8.515625 -24.644531 6.765625 -26.109375 5.296875 -28.046875 C 3.835938 -29.984375 3.109375 -32.507812 3.109375 -35.625 C 3.109375 -40.25 4.785156 -43.867188 8.140625 -46.484375 C 11.492188 -49.109375 15.863281 -50.421875 21.25 -50.421875 C 26.726562 -50.421875 31.140625 -49.109375 34.484375 -46.484375 C 37.835938 -43.867188 39.632812 -40.226562 39.875 -35.5625 L 26.765625 -35.5625 C 26.671875 -37.164062 26.082031 -38.425781 25 -39.34375 C 23.914062 -40.257812 22.523438 -40.71875 20.828125 -40.71875 C 19.359375 -40.71875 18.175781 -40.328125 17.28125 -39.546875 C 16.382812 -38.773438 15.9375 -37.65625 15.9375 -36.1875 C 15.9375 -34.582031 16.691406 -33.332031 18.203125 -32.4375 C 19.710938 -31.539062 22.070312 -30.570312 25.28125 -29.53125 C 28.5 -28.445312 31.109375 -27.410156 33.109375 -26.421875 C 35.117188 -25.429688 36.851562 -23.988281 38.3125 -22.09375 C 39.78125 -20.207031 40.515625 -17.773438 40.515625 -14.796875 C 40.515625 -11.960938 39.789062 -9.390625 38.34375 -7.078125 C 36.90625 -4.765625 34.816406 -2.921875 32.078125 -1.546875 C 29.347656 -0.179688 26.113281 0.5 22.375 0.5 Z M 22.375 0.5 "/></g></g></g></svg>